<?xml version="1.0" encoding="UTF-8"?>
<!-- Created with Inkscape (http://www.inkscape.org/) -->
<svg width="580" height="580" version="1.1" viewBox="0 0 580 580" xmlns="http://www.w3.org/2000/svg">
 <defs>
  <clipPath id="clipPath1074">
   <rect x="70.523" y="708.69" width="580" height="580" fill="#ed6d01" fill-rule="evenodd" stroke-linejoin="round" stroke-width="1.1339" style="paint-order:stroke fill markers"/>
  </clipPath>
  <clipPath id="clipPath1078">
   <rect x="70.523" y="708.69" width="580" height="580" fill="#ed6d01" fill-rule="evenodd" stroke-linejoin="round" stroke-width="1.1339" style="paint-order:stroke fill markers"/>
  </clipPath>
  <clipPath id="clipPath1082">
   <rect x="70.523" y="708.69" width="580" height="580" fill="#ed6d01" fill-rule="evenodd" stroke-linejoin="round" stroke-width="1.1339" style="paint-order:stroke fill markers"/>
  </clipPath>
  <clipPath id="clipPath1086">
   <rect x="105.55" y="57.05" width="580" height="580" fill="#ed6d01" fill-rule="evenodd" stroke-linejoin="round" stroke-width="1.1339" style="paint-order:stroke fill markers"/>
  </clipPath>
 </defs>
 <g transform="translate(-62.523 -710.69)">
  <g transform="translate(-43.025 653.64)" clip-path="url(#clipPath1086)">
   <path d="m1334 652.11-18.413-10.613v-80.712l-27.786 15.681-6.7315-22.069-6.7314-22.069 6.6315-5.2877c3.6473-2.9083 12.739-8.5917 20.204-12.63l13.573-7.3422 45.284 25.111 0.6778 65.338c0.7866 75.83 2.8441 71.625-26.71 54.591zm-979.47-19.999c-59.615-8.6949-116.11-37.536-160.53-81.958-37.892-37.892-62.441-80.646-76.489-133.21-5.8553-21.91-6.5691-29.349-6.6211-69.002-0.0524-39.927 0.60839-46.916 6.5011-68.759 26.529-98.339 94.914-172.73 187.95-204.46 57.006-19.442 135-18.317 190.98 2.7534 104.55 39.354 177.19 134.56 186.47 244.44 12.793 151.33-89.43 283.39-239.29 309.14-24.156 4.1501-64.51 4.633-88.976 1.0646zm75.975-7.624c112.99-13.846 206.92-95.924 236.63-206.77 6.1013-22.76 6.8054-29.857 6.9238-69.782 0.14502-48.946-2.9114-66.131-18.836-105.9-19.075-47.638-59.943-98.059-102.04-125.89-72.41-47.873-163.91-60.36-244.63-33.387-122.92 41.074-203.61 165.57-189.36 292.18 17.682 157.14 156.61 268.5 311.31 249.55zm-73.436-5.0744c-37.704-5.4991-83.26-23.366-115.64-45.352-20.883-14.181-48.137-40.137-63.849-60.807-17.787-23.4-39.093-67.711-47.128-98.015-5.9048-22.267-6.7507-30.404-6.8654-66.032-0.14626-45.424 2.7196-62.334 17.013-100.39 12.366-32.923 30.068-60.605 56.758-88.759 55.216-58.245 120.2-86.409 199.37-86.409 125.85 0 232.97 82.543 266.34 205.23 6.8434 25.163 9.4363 83.725 4.9476 111.74-15.898 99.238-85.755 182.83-180.38 215.85-40.216 14.032-89.56 18.922-130.58 12.939zm13.692-38.71c1.148-1.1857 2.8623 1.3726 3.8095 5.6852 2.53 11.519 5.5791 11.789 11.273 1.0004l5.0716-9.6092 0.41272 10.159c0.40066 9.8616 0.46944 9.9358 2.3514 2.5397 2.8622-11.248 2.887-21.587 0.0516-21.587-1.3684 0-4.9666 4.8572-7.9958 10.794-5.4589 10.698-5.5294 10.737-7.9486 4.4444-7.3572-19.138-7.2223-18.927-9.6396-15.106-1.2795 2.0224-2.1726 9.3914-1.9847 16.375 0.22578 8.3906 0.70964 10.114 1.4264 5.0794 0.59659-4.1905 2.024-8.5892 3.1721-9.7748zm35.617 12.315c0-5.0424 11.09-4.9979 15.289 0.0615 1.7669 2.129 3.7319 3.3516 4.3666 2.7168 1.508-1.508-12.756-26.899-15.113-26.903-0.99378-1e-3 -3.0571 4.6403-4.5851 10.315-1.528 5.6747-3.4086 11.96-4.1791 13.968-0.77051 2.0079-0.13587 3.6507 1.4105 3.6507 1.5463 0 2.8114-1.7143 2.8114-3.8095zm2.5397-10.009c0-5.373 4.299-7.1166 6.0831-2.4673 2.1721 5.6604 1.999 6.1269-2.2736 6.1269-2.0952 0-3.8095-1.6468-3.8095-3.6596zm-51.384-17.076c-5.4473-3.4576-11.7-2.3463-13.072 2.3232-0.71807 2.4444-1.9082 9.0159-2.6448 14.603-1.2722 9.6502-1.1894 9.8048 1.6549 3.0886 3.853-9.0979 10.513-7.9708 11.891 2.0124 0.85847 6.2184 1.4428 5.0943 3.2195-6.1933 1.6237-10.315 1.3594-14.306-1.0488-15.834zm-8.6113 6.8693c-0.87172-2.2716-1.0359-4.6793-0.36485-5.3504 2.1507-2.1507 9.8144 1.9642 8.8798 4.768-1.5256 4.5768-6.8426 4.9405-8.515 0.5824zm99.36 18.946c4.2826-1.8403 3.809-2.2107-3.019-2.3612-7.614-0.16787-8.2008-0.86197-9.8122-11.607-0.94261-6.2857-2.8039-11.429-4.1363-11.429-1.3324 0-1.835 2-1.1169 4.4444 0.71807 2.4444 2.0651 8.7302 2.9935 13.968 1.757 9.9136 4.8945 11.366 15.091 6.9841zm-115.56-10.159c2.7936-2.7936 5.0794-7.7966 5.0794-11.118 0-13.056-15.942-15.719-22.621-3.7782-3.3543 5.996-3.291 7.3818 0.60858 13.333 5.212 7.9544 10.091 8.4047 16.933 1.5625zm-14.194-3.483c-2.2546-5.8755-0.26852-12.178 4.8193-15.292 6.2012-3.7962 12.474 4.104 9.56 12.039-2.3944 6.5195-12.269 8.7534-14.379 3.2531zm171.49-1.2799c1.8323-3.4238 1.3921-7.7081-1.5657-15.238-2.2631-5.7614-4.9923-10.475-6.0649-10.475-1.0726 0-0.18032 4.5056 1.9829 10.013 7.0904 18.05-3.3698 25.832-11.292 8.4002-5.3582-11.791-5.4555-11.933-7.0517-10.337-1.4079 1.4079 4.7078 17.372 7.8517 20.496 3.6619 3.6384 13.605 1.8776 16.139-2.8582zm-180.94-10.535c6.0898-13.862 4.1363-17.667-2.2509-4.3846l-3.9692 8.254-1.8593-12.063c-1.0226-6.6349-2.6446-12.063-3.6046-12.063-2.3039 0-13.498 23.121-11.946 24.674 0.66133 0.66133 3.431-3.1416 6.1549-8.451l4.9525-9.6534 1.8187 13.223c1.0002 7.2728 2.5686 13.196 3.4851 13.163 0.91654-0.033 4.165-5.7472 7.2189-12.698zm190.19-2.1177c-5.7038-11.03-5.2017-11.345 6.4019-4.0202 5.7193 3.6104 11.078 5.8854 11.908 5.0555 2.1868-2.1868-9.024-24.255-12.322-24.255-1.5289 0-0.30771 4 2.7138 8.8889 6.2407 10.098 4.6168 11.072-6.3492 3.8095-12.759-8.4503-14.719-6.3915-7.4911 7.8716 3.6095 7.123 7.1416 12.372 7.8491 11.665 0.70751-0.70748-0.5122-4.7644-2.7104-9.0153zm30.581-11.791c-2.2559-3.4921-5.9707-9.242-8.2552-12.778-2.2844-3.5356-4.7082-5.8738-5.3862-5.1958-1.6778 1.6778 12.792 24.312 15.546 24.318 1.2083 3e-3 0.35114-2.8526-1.9048-6.3447zm-263.24 0.11123c3.2022-3.8584 1.6328-9.0001-2.7471-9.0001-1.3968 0-1.8334 1.1428-0.97009 2.5397s0.82898 3.738-0.0762 5.2027c-2.506 4.0548-8.8127-2.2537-8.8127-8.8152 0-11.609 13.503-16.085 17.834-5.9113 2.3971 5.631 2.4237 5.6217 1.8229-0.63492-0.87291-9.0915-13.661-10.442-20.064-2.1182-5.7073 7.4194-5.8249 11.874-0.46964 17.791 5.072 5.6046 9.3661 5.9059 13.482 0.94613zm284.54-11.087c0-4.9912-8.2989-25.849-10.285-25.849-1.2036 0-0.5247 4.7151 1.5086 10.478s3.6969 10.92 3.6969 11.46c0 0.54032-4.5714-1.9034-10.159-5.4305-5.5873-3.5271-10.159-5.3718-10.159-4.0993 0 2.2674 19.743 15.234 23.492 15.429 1.0476 0.0546 1.9048-0.84018 1.9048-1.9882zm-295.49-22.504c-0.76526-0.76523-4.363 1.8834-7.995 5.8858l-6.6036 7.2772 1.5405-13.968 1.5405-13.968-10.557 10.965c-5.8063 6.0309-9.9309 11.591-9.1656 12.357 0.76524 0.76524 4.363-1.8834 7.995-5.8858l6.6036-7.2772-3.081 27.937 10.557-10.965c5.8063-6.0308 9.9309-11.591 9.1656-12.357zm190.09 13.146c22.669-6.0988 54.155-22.461 72.77-37.815 30.466-25.129 56.075-66.724 64.558-104.86 6.3902-28.723 4.1403-74.263-4.9961-101.12-9.857-28.977-24.877-52.965-47.042-75.131-22.166-22.166-46.154-37.185-75.131-47.042-29.05-9.8819-72.609-11.489-103.05-3.8033-57.275 14.46-103.41 51.487-127.83 102.6-13.635 28.533-17.66 47.034-17.79 81.788-0.13824 36.734 3.8009 53.547 20.527 87.619 10.017 20.406 15.403 27.668 34.918 47.086 29.862 29.714 63.079 47.408 102.47 54.584 17.147 3.1238 62.666 0.91611 80.601-3.9091zm-82.349-4.0142c-71.54-14.036-128.07-66.907-146.4-136.92-5.7725-22.049-5.9009-64.466-0.26136-86.349 16.014-62.142 61.842-111.09 123.63-132.05 23.515-7.9769 70.854-9.8899 97.582-3.9434 51.547 11.468 98.456 47.8 123.25 95.461 28.232 54.266 26.556 122.77-4.278 174.81-19.759 33.348-54.527 63.736-88.906 77.706-30.555 12.416-74.628 17.17-104.62 11.286zm84.888-7.4596c60.006-18.903 101.9-59.339 122.28-118.03 6.3801-18.372 7.0503-23.601 6.9986-54.603-0.0503-30.239-0.85496-36.69-6.8166-54.657-18.95-57.111-61.165-98.752-120.14-118.51-15.171-5.0823-22.566-5.8769-54.384-5.844-33.795 0.0351-38.495 0.62512-57.118 7.1711-98.222 34.525-148.14 137.04-113.26 232.61 21.474 58.84 72.657 102.95 134.45 115.87 23.976 5.0131 65.325 3.1287 87.986-4.0098zm-85.079-24.215c0-6.0711-0.94202-8.4566-2.8692-7.2655-1.7414 1.0762-2.4074 0.38644-1.6943-1.7549 0.64618-1.9405 3.0802-3.8976 5.4089-4.3492 3.4547-0.67002 4.234 1.3166 4.234 10.794 0 6.3881-1.1429 11.615-2.5397 11.615-1.3968 0-2.5397-4.0675-2.5397-9.0388zm13.93 6.4377c-1.1198-1.8118-0.0229-2.7052 2.935-2.3925 8.7455 0.9244 9.8375-0.14247 3.4522-3.3728-8.7865-4.4453-8.4539-12.978 0.54634-14.016 5.6812-0.65503 7.2006 0.42047 8.628 6.1074 0.95281 3.7963 0.59025 8.7255-0.80571 10.954-3.1119 4.9672-12.318 6.6643-14.756 2.7201zm9.1173-13.335c-0.31413-3.0367-3.7976-2.4486-4.8889 0.8254-0.55873 1.6762 0.35556 2.5905 2.0318 2.0317s2.9619-1.8444 2.8571-2.8571zm16.187 10.222c0.95264-3.1428 2.3376-7.6205 3.0776-9.9504 0.94433-2.973-0.43043-4.5737-4.6105-5.3684-4.6028-0.87505-4.0807-1.2109 2.298-1.4782 9.1294-0.38253 9.9235 1.726 5.4658 14.513-3.1673 9.0858-8.9333 11.199-6.2309 2.2837zm15.33 3.1135c-1.1869-1.9204 0.22553-2.6092 4.2046-2.0503 4.0071 0.56282 5.9919-0.42031 5.9919-2.9679 0-2.5622-1.9877-3.5296-6.0704-2.9546-4.7878 0.67426-5.7268-0.0404-4.4444-3.3823 0.8943-2.3305 1.626-5.2866 1.626-6.5692 0-1.2826 3.1429-2.2595 6.9841-2.171l6.9841 0.16101-6.3492 2.7222-6.3492 2.7222 6.3492 1.6758c9.2948 2.4532 8.9935 13.839-0.39508 14.926-3.7094 0.42925-7.5486-0.52089-8.5316-2.1114zm-112.98-89.742v-46.628l-45.714-41.781v-13.751c0-9.344 1.4247-14.544 3.5819-14.498 1.746 0.0373 16.482 13.393 33.244 28.683 16.762 15.29 31.048 27.818 31.746 27.839 0.69841 0.0203 12.127-10.2 25.397-22.713l24.127-22.752-49.524-46.356v-14.993c0-8.2461 0.68178-14.993 1.515-14.993 1.6588 0 11.674 8.6753 44.977 38.959l21.896 19.911 32.168-29.435c17.692-16.189 33.162-29.435 34.378-29.435 1.2154 0 2.2255 6.5714 2.2448 14.603l0.0351 14.603-24.621 22.993c-13.643 12.741-23.87 24.207-22.938 25.715 0.92541 1.4974 11.906 12.056 24.401 23.463l22.718 20.74 31.658-28.042c17.412-15.423 32.924-28.042 34.471-28.042 1.7089 0 2.8123 5.3726 2.8123 13.693v13.693l-45.714 41.734v93.419h-45.714v-93.419l-45.928-41.93-8.1469 7.3079c-4.4808 4.0194-14.718 13.58-22.75 21.245l-14.603 13.938v92.857h-45.714zm20.802-100.7c-10.459-3.738-8.9232-3.2313-0.97557-11.179 8.5978-8.5978 8.694-7.8434 12.293 4.278 1.2283 4.1371-10.12-0.46151-4.5183 3.0145 7.4335 4.6125-0.29418 6.2112-6.799 3.8865zm142.27-2.3382c-2.2487 3.2617 11.232 4.3195-0.86734 10.703-4.4196 2.3317 17.74-27.892 7.4166-22.828-55.887 27.413 13.006-16.239-6.5492 12.125zm-68.882-67.791c-4.9165-5.4327 28.591 13.031-11.191-2.0527-6.5626-2.4883 18.285-7.7756 14.522-2.6152-4.7351 6.4932-0.81505-8.77 3.421-0.51496 3.7518 7.3113-1.5244 10.959-6.7515 5.1829zm172.91 284.37c2.5544-2.3117 4.6444-5.346 4.6444-6.7428 0-1.3968-2.2643-0.49054-5.0317 2.014-4.1574 3.7624-5.7131 3.9882-8.953 1.2993-3.5231-2.9239-3.488-3.7331 0.34598-7.9696 4.6418-5.1291 1.3446-6.6434-3.6311-1.6676-2.1144 2.1144-3.8583 2.2369-5.6949 0.40031-1.8366-1.8366-1.4478-3.6428 1.2698-5.8983 2.1544-1.788 3.9172-4.4531 3.9172-5.9224s-2.8766 0.031-6.3926 3.3341l-6.3926 6.0055 9.4477 9.6753c5.1962 5.3214 9.9829 9.6753 10.637 9.6753s3.2793-1.8914 5.8338-4.2032zm-346.97-18.907c3.6095-7.123 5.94-13.574 5.1788-14.335-1.6914-1.6914-24.634 6.6304-28.164 10.216-1.7121 1.739-0.97169 2.024 2.272 0.87467 6.3536-2.2512 14.09 4.7772 12.394 11.26-2.3505 8.9884 1.6606 5.1234 8.3187-8.0159zm-7.9225-2.5711c-0.9598-1.553-0.17011-3.8212 1.7549-5.0405 5.7962-3.6713 7.6468-2.5909 4.7698 2.7847-3.1225 5.8344-4.1034 6.1735-6.5247 2.2557zm363.3 2.7636c-3.6204-4.0005-3.975-5.8155-1.6001-8.1904 2.3749-2.3749 4.2174-2.3226 8.3143 0.23594 9.3333 5.8288 7.6071 1.4855-2.7024-6.7994-11.857-9.5286-13.87-9.7964-18.965-2.523-3.6472 5.2071-3.3312 5.9936 5.5703 13.863 10.424 9.2149 16.698 11.498 9.3826 3.4143zm-11.186-9.9824c-4.0089-2.4776-1.4457-7.7354 3.7711-7.7354 3.8603 0 5.0872 6.437 1.6336 8.5714-1.1143 0.68869-3.5464 0.31248-5.4047-0.83601zm-369-8.1929c1.6484-1.6484 7.877-3.7911 13.841-4.7615 9.6006-1.562 9.9049-1.8008 2.6536-2.0822-7.7771-0.30184-8.1228-0.73453-6.8497-8.5719l1.3408-8.254-3.9033 8.4489c-2.1468 4.6469-6.493 10.609-9.6582 13.249-3.1652 2.64-4.5549 4.838-3.0883 4.8844 1.4667 0.0465 4.0154-1.2642 5.6638-2.9127zm402.26-1.206c5.6362-5.1007 5.9029-9.3685 0.84762-13.564-3.0581-2.5379-5.0173-2.3514-10.069 0.95888-3.4499 2.2605-7.4556 4.1099-8.9016 4.1099-4.2773 0-2.9976-7.1378 1.8154-10.126 4.0629-2.5225 4.0084-2.6946-0.63492-2.005-3.1256 0.46426-5.409 3.0761-5.9365 6.7905-1.1599 8.1685 4.4381 11.154 11.831 6.3097 3.2692-2.1421 7.5467-3.2797 9.5056-2.528 4.3691 1.6766 1.9386 9.178-2.9738 9.178-1.9458 0-3.5378 1.1429-3.5378 2.5397 0 3.693 2.7666 3.1216 8.054-1.6635zm-406.78-25.003c6.2857-3.3658 9.9432-6.1713 8.1278-6.2344-1.8154-0.0632-6.853 1.7222-11.195 3.9674l-7.894 4.0822 6.8574-11.701c4.4628-7.6153 5.7114-11.661 3.5757-11.586-4.5955 0.16076-26.882 12.328-22.838 12.469 1.8154 0.0632 6.853-1.7222 11.195-3.9674l7.894-4.0822-6.8574 11.701c-7.886 13.456-5.8385 14.441 11.135 5.352zm421.59 2.781c0-1.9324-23.253-14.661-24.501-13.412-0.68498 0.685 3.6904 4.2035 9.7232 7.8189 10.411 6.2392 14.778 7.8921 14.778 5.593zm-0.84666-25.913c-8.2875-4.3123-11.82-7.574-10.873-10.04 0.77105-2.0093 0.42819-3.6532-0.76188-3.6532s-2.7388 2-3.4417 4.4444c-0.70283 2.4444-2.1447 6.5576-3.2041 9.1404-1.6991 4.1422-1.3382 4.3287 3.0601 1.5819 4.0448-2.526 6.3922-2.3529 12.432 0.91668 4.095 2.2169 9.1597 4.0232 11.255 4.0141 2.0952-0.0102-1.7143-2.8908-8.4657-6.4038zm-435.68-2.8613c6.8224-2.4231 12.404-5.2802 12.404-6.3492 0-2.8976-2.5481-2.2261-16.508 4.3501-15.155 7.1394-13.137 8.1225 4.1036 1.9991zm0.133-20.069c8.4059 1.4075 8.4156 1.3975 1.4777-1.5127-7.9672-3.3419-8.5522-5.1051-3.1746-9.5681 2.0952-1.7389 3.7734-4.4503 3.7293-6.0252-0.0441-1.575-2.9753 0.42895-6.5136 4.4532-5.7553 6.5457-7.1198 7.0041-12.946 4.3494-8.8032-4.011-10.574-1.5411-2.0848 2.9071 6.0028 3.1452 6.3126 3.914 2.7642 6.8589-2.198 1.8242-3.9964 4.5188-3.9964 5.9881s2.7636 0.0752 6.1414-3.0981c4.7619-4.4736 8.042-5.4512 14.603-4.3526zm454.16 0.98273c8e-3 -1.0476-1.6113-1.9048-3.5994-1.9048-1.9881 0-7.1792-2.9993-11.536-6.6652-8.7829-7.3903-13.309-7.0523-5.0956 0.38054l5.1818 4.6895-7.071 2.9136c-6.4447 2.6556-5.7789 2.895 7.5169 2.7024 8.0233-0.11631 14.595-1.0684 14.603-2.1161zm-446.97-93.065c0-1.2491-3.4491-5.9633-7.6646-10.476-6.9041-7.3909-8.668-8.0445-17.778-6.5878-9.4206 1.5064-10.113 1.2016-10.113-4.4511 0-8.1336-6.3298-13.461-11.196-9.4233-3.0102 2.4983-2.6081 3.9367 2.5397 9.0844 3.3639 3.3639 6.1162 7.9594 6.1162 10.212 0 2.7046 1.5098 3.6532 4.4444 2.7923 2.4444-0.71711 9.5873 1.44 15.873 4.7934 12.14 6.4768 17.778 7.763 17.778 4.0558zm432.96-18.288c-1.9805-9.0171 0.34994-9.2408 11.393-1.0937l8.517 6.2836 5.8234-6.2836c3.2029-3.456 7.5923-6.2836 9.7542-6.2836 6.175 0 4.5914-7.172-1.7835-8.0773-4.0699-0.578-5.6563-2.456-5.5126-6.5258 0.23695-6.7113-1.2808-7.074-7.9702-1.9048-4.8658 3.76-4.8662 3.8587-0.0358 7.5928 2.6917 2.0808 4.2352 4.4421 3.43 5.2473-1.6117 1.6116-12.134-8.7864-12.134-11.991 0-1.1012 2.8572-3.8743 6.3492-6.1624 6.3547-4.1638 8.4258-8.6553 3.9909-8.6553-1.2971 0-4.0693 1.711-6.1605 3.8022-2.0912 2.0912-5.6014 3.1118-7.8004 2.268-5.8138-2.231-4.9665 3.2599 2.458 15.929 4.3039 7.344 5.3622 11.007 3.1746 10.988-1.8049-0.0152-5.4802-4.6176-8.1672-10.226-3.3406-6.9719-5.7098-9.3721-7.4921-7.5899-1.7822 1.7822-1.6427 3.5703 0.44109 5.6541 4.2412 4.2412 3.802 6.7724-1.0514 6.0601-2.2544-0.33087-6.1763-3.3555-8.7152-6.7214-5.9748-7.921-8.2428-5.5143-4.3992 4.6684 3.8677 10.247 0.43208 13.761-5.8624 5.9973l-4.8608-5.9957v6.1226c0 8.4279 4.5348 12.2 12.703 10.566 4.9474-0.98948 7.3381-0.19124 8.5006 2.8382 2.6738 6.9678 7.179 1.5482 5.4097-6.5076zm-431.73-7.3248c0.84545-1.368 0.30125-4.7965-1.2093-7.619-2.9003-5.4193-0.33193-6.9595 4.143-2.4845 1.8366 1.8366 3.6702 1.4148 5.9876-1.3775 4.3106-5.1939 0.45542-9.1966-6.984-7.2512-5.8299 1.5245-14.297 15.066-11.873 18.988 1.8512 2.9954 8.0245 2.8363 9.9356-0.25598zm-10.126-17.83c1.1733-5.7782 0.94008-8.0001-0.66644-6.3492-1.3593 1.3968-3.2154 6.504-4.1247 11.349-1.0046 5.353-0.74312 7.8442 0.66643 6.3492 1.2759-1.3532 3.132-6.4603 4.1247-11.349zm-18.32-3.2153c0.75871-4.5173 2.2419-10.499 3.296-13.293 1.8376-4.8701 1.709-4.8976-3.1202-0.66959-3.6036 3.155-5.8164 3.6301-7.777 1.6695-1.9606-1.9606-4.2631-1.9253-8.0923 0.12394-6.0952 3.2621-7.3543 8.3739-1.5102 6.1313 6.1897-2.3752 11.782 3.7872 8.6857 9.5719-1.4321 2.6759-1.8777 6.0399-0.99037 7.4757 2.6446 4.279 7.9776-1.8963 9.5083-11.01zm9.5193 5.7549c0.90328-6.7057-0.0266-10.497-2.2393-9.1293-1.1828 0.73104-2.2537 4.9551-2.3797 9.3867-0.22139 7.7864 3.5639 7.5755 4.619-0.2574zm451.97-11.221c0-0.58418 0.69839-2.8821 1.552-5.1065 1.1975-3.1206 0.18235-3.8359-4.4444-3.1318-7.698 1.1715-9.7721 9.3004-2.3731 9.3004 2.896 0 5.2656-0.47797 5.2656-1.0621zm-403.64-62.748c-3.4951-4.7273-4.8422-9.2954-3.8762-13.144 1.1645-4.6399 0.0669-6.5428-5.1435-8.9168-7.9712-3.6319-11.464-3.8298-11.464-0.64954 0 1.3027 2.3974 3.1295 5.3276 4.0595 4.1248 1.3092 5.0411 3.1898 4.0586 8.3296-0.9026 4.7217 1.0424 9.9662 6.7358 18.163 7.3476 10.578 8.0752 11.027 8.8618 5.464 0.47451-3.3558-1.5335-9.2932-4.4998-13.305zm355.39 5.7762c0-1.1884-1.3339-5.9871-2.9642-10.664-2.5896-7.4286-3.2089-7.8777-4.9009-3.5536-3.7654 9.6233-2.6165 16.378 2.7857 16.378 2.7936 0 5.0794-0.97231 5.0794-2.1607zm-327.01-18.643c-0.88535-3.3856-2.8373-4.6031-6.0379-3.7662-6.7906 1.7758-5.8264-2.1356 2.0547-8.3349 8.217-6.4634 14.122-3.1639 9.0036 5.0313-3.7385 5.9863-0.0216 6.6645 5.618 1.025 4.3769-4.3769 4.7581-6.2927 2.4494-12.309-1.7111-4.459-9.9767-5.4418-12.427-1.4776-2.425 3.9238-8.8889 3.0004-8.8889-1.2698 0-2.0952-1.7143-3.8095-3.8095-3.8095-2.3964 0-3.8095-2.4171-3.8095-6.5162 0-9.2738-4.4321-16.341-10.248-16.341-6.1427 0-6.3665 2.2431-0.64142 6.4293 3.6767 2.6885 3.8249 3.8108 0.95886 7.2641-1.8643 2.2464-4.964 4.0844-6.8883 4.0844-4.7675 0-4.4056 1.7785 1.6945 8.3261 4.3523 4.6717 5.5634 4.9748 7.481 1.8721 1.2584-2.0361 3.0763-2.9136 4.0399-1.95 0.96357 0.96357-0.19355 4.7212-2.5714 8.3502l-4.3234 6.5983 6.519-4.2714c7.7327-5.0666 8.3376-2.3471 1.4397 6.4715-6.6182 8.4608-6.3833 9.3487 2.5397 9.6024 4.1905 0.11913 7.619-0.8498 7.619-2.1532s1.1429-2.3698 2.5397-2.3698c1.3968 0 2.5572 2.5714 2.5786 5.7143 0.0285 4.1862 0.62439 4.7902 2.2284 2.2585 1.2042-1.9006 1.6008-5.7071 0.88121-8.4587zm-26.006-27.451c0-1.3968 1.1429-2.5397 2.5397-2.5397 1.3968 0 2.5397 1.1429 2.5397 2.5397 0 1.3968-1.1429 2.5397-2.5397 2.5397-1.3968 0-2.5397-1.1429-2.5397-2.5397zm357.46 22.336c11.242 0.29684 13.934-2.5478 6.4021-6.7631-4.1623-2.3294-4.1623-2.711 0-7.3103 2.4154-2.669 4.3916-5.6198 4.3916-6.5574 0-3.1426-5.9031-1.7466-10.604 2.5077-3.8657 3.4984-5.7793 3.7001-11.289 1.1897-6.3304-2.8843-6.5611-2.7309-5.035 3.3496 1.7024 6.7829-0.13942 7.8089-17.516 9.7574l-7.619 0.85433 6.3492 2.974c3.62 1.6956 10.17 2.2731 15.238 1.3436 4.8889-0.89671 13.746-1.5021 19.683-1.3454zm-93.333-44.466c0-6.119-0.3196-6.3037-4.446-2.5693-5.7793 5.2302-14.271 1.1843-12.07-5.7508 2.5671-8.0883-3.0552-7.9583-6.4131 0.14835-3.8135 9.2066-1.655 12.238 10.63 14.93 10.661 2.336 12.299 1.4358 12.299-6.7585zm-163.99-5.1708c-0.62326-5.2381-0.45618-8.0952 0.37133-6.3492 1.7847 3.7658 11.24 4.2999 11.24 0.63492 0-1.3968-1.1428-2.5397-2.5397-2.5397-1.3968 0-2.5397-1.8476-2.5397-4.1057 0-2.8769-1.5445-3.7018-5.1605-2.7562-7.3927 1.9332-13.734-12.642-8.2529-18.968 3.2498-3.7504 3.093-4.5544-1.3521-6.9333-4.5602-2.4406-5.1162-1.7676-5.9744 7.2315-0.95987 10.065 9.2585 43.309 13.312 43.309 1.1159 0 1.519-4.2857 0.89574-9.5238zm34.406 0.46958c-3.5497-9.3365-3.0639-13.803 1.5014-13.803 2.8416 0 3.7486-1.9955 3.1746-6.9841-0.63381-5.5083-2.2968-7.1556-7.8697-7.7956-6.5127-0.74797-6.9433-1.466-5.4982-9.1692 2.1053-11.222-3.9537-13.588-13.434-5.245l-7.018 6.1763 6.9213 0.0803c6.3719 0.0739 6.7246 0.59737 4.4444 6.5948-3.4875 9.1727-3.1022 14.586 0.92795 13.04 2.222-0.85265 5.234 3.0232 8.6704 11.157 5.4479 12.895 12.874 18.296 8.1794 5.9488zm-6.0411-21.025c-0.87886-1.422-0.36038-3.3503 1.1522-4.2851 3.9047-2.4133 6.424 0.89231 3.1644 4.152-1.824 1.824-3.2445 1.8678-4.3166 0.13316zm105.34 15.702c3.3863-3.7173 4.7284-5.9356 2.9824-4.9295-1.746 1.0061-3.1746 0.61894-3.1746-0.86032s1.5743-2.6896 3.4986-2.6896c5.8122 0 10.288-7.0575 6.9932-11.027-4.1777-5.0338-0.92554-6.7505 12.789-6.7505 6.7513 0 12.275-1.1026 12.275-2.4503 0-4.1227-8.5556-7.3105-15.868-5.9126-4.8959 0.93592-7.3865 0.12249-8.4986-2.7757-2.3644-6.1616-6.1091-4.9283-6.1091 2.0119 0 5.0063-1.0333 5.8907-5.7143 4.8909-5.4171-1.1571-5.4727-1.0235-1.0691 2.5693 3.7657 3.0723 4.1094 4.791 1.8154 9.0774-3.7488 7.0047-5.9883 6.7501-3.7545-0.42678 1.7631-5.6647 1.7315-5.6723-3.6384-0.87622-6.5787 5.8757-6.7853 8.7311-0.97244 13.442 4.0152 3.254 3.6365 3.5058-3.9214 2.6082-4.6012-0.54647-9.0333 0.0865-9.8492 1.4066-1.8868 3.0529 4.4932 7.2334 8.6912 5.6948 1.746-0.6399 3.1746-0.0565 3.1746 1.2965 0 4.3231 4.0161 2.6552 10.351-4.2988zm14.411-30.479c1.746-0.70454 4.6032-0.70454 6.3492 0 1.746 0.70454 0.31746 1.281-3.1746 1.281-3.4921 0-4.9206-0.57644-3.1746-1.281zm14.044 13.745c-0.55573-1.0476-3.1577-1.9048-5.7821-1.9048-3.3605 0-4.6666 1.6899-4.4164 5.7143 0.50862 8.1815 4.8972 10.1 8.2999 3.6281 1.6-3.043 2.4544-6.39 1.8986-7.4376zm-157.41 1.5708c2.5115-2.5115-3.0554-11.095-7.1958-11.095-2.0461 0-3.7202 1.1429-3.7202 2.5397 0 1.3968 1.1428 2.5397 2.5397 2.5397 1.3968 0 2.5397 1.7143 2.5397 3.8095 0 3.9159 2.9947 5.0477 5.8366 2.2058zm1154.8 496.57c0-8.2281-0.8043-10.122-3.8095-8.9686-2.0952 0.80401-3.8095 0.53199-3.8095-0.60452 0-2.3982 8.476-10.473 10.994-10.473 0.9376 0 1.7048 6.8572 1.7048 15.238 0 8.4656-1.1287 15.238-2.5397 15.238-1.3968 0-2.5397-4.6937-2.5397-10.43zm19.471 8.7373c-3.3585-3.3585-1.584-5.8539 3.7412-5.2611 2.9889 0.33275 5.9113-0.73366 6.4943-2.3698 0.6675-1.8735-0.7938-2.49-3.9471-1.6654-6.792 1.7762-11.802-7.268-7.9815-14.407 5.9212-11.064 17.778-4.2886 17.778 10.159 0 5.0286-1.3715 10.514-3.0476 12.19-3.3205 3.3204-10.342 4.0499-13.037 1.3545zm9.7355-18.624c0-1.8624-1.4286-3.8624-3.1746-4.4444-1.8885-0.62949-3.1746 1.1711-3.1746 4.4444 0 3.2734 1.2861 5.0739 3.1746 4.4444 1.746-0.58202 3.1746-2.582 3.1746-4.4444zm16.508 17.696c0-1.4417 1.7143-6.7241 3.8095-11.739 4.8321-11.565 4.9608-11.037-2.6895-11.037-3.686 0-5.8197-1.0993-4.9295-2.5397 1.8454-2.9859 19.048-3.4709 19.048-0.53699 0 1.1015-2.2857 6.486-5.0794 11.966-2.7936 5.4796-5.0793 11.436-5.0793 13.235s-1.1429 3.2725-2.5397 3.2725-2.5397-1.1796-2.5397-2.6213zm24.55 0.92813c-3.7033-3.7033-1.3544-5.9377 4.6561-4.4291 5.2687 1.3224 6.3492 0.68233 6.3492-3.7612 0-4.0185-1.5843-5.3547-6.3492-5.3547-6.3968 0-7.8299-3.345-4.8077-11.221 1.6889-4.4011 16.236-5.725 16.236-1.4776 0 1.3968-2.2182 2.5397-4.9294 2.5397-7.1523 0-8.8803 4.5692-2.0924 5.5327 10.708 1.52 7.9149 19.864-3.0246 19.864-2.3898 0-5.107-0.76191-6.0382-1.6931zm-105.82-13.545c0-1.3968 4-2.5397 8.8889-2.5397 4.8888 0 8.8888 1.1428 8.8888 2.5397s-4 2.5397-8.8888 2.5397c-4.8889 0-8.8889-1.1428-8.8889-2.5397zm129.52 0c0-1.3968 4-2.5397 8.8889-2.5397s8.8889 1.1428 8.8889 2.5397-4 2.5397-8.8889 2.5397-8.8889-1.1428-8.8889-2.5397zm-356.83-23.915-22.857-13.189-0.6864-52.559c-0.3854-29.506 0.3043-52.559 1.5725-52.559 3.9201 0 43.976 23.531 45.117 26.504 0.5992 1.5617 0.7793 25.824 0.4002 53.915l-0.6893 51.076zm575.33-7.7193c-1.6881-2.034-2.2898-4.9596-1.337-6.5012 1.1569-1.8719 2.7947-1.35 4.9307 1.5713 1.9161 2.6203 4.8732 3.7315 7.3753 2.7714 6.3596-2.4404 5.0341-5.5475-4.0772-9.5578-9.0001-3.9614-11.007-11.502-4.2026-15.794 5.3507-3.3751 17.536-0.18565 17.536 4.59 0 4.2733-3.9887 5.0407-6.3492 1.2215-2.0808-3.3669-8.8889-3.2658-8.8889 0.13206 0 1.4695 3.337 3.835 7.4155 5.2568 8.6978 3.032 11.38 8.2807 7.7242 15.112-3.1455 5.8774-15.626 6.6197-20.127 1.1971zm34.171 0.18641c-3.2263-2.3592-4.8029-6.6252-4.8029-12.996 0-14.293 15.677-22.574 23.924-12.637 4.4303 5.3383 0.8421 8.0674-5.4449 4.1411-9.9245-6.198-17.742 9.7765-8.5267 17.424 3.1498 2.6141 4.7336 2.408 8.6367-1.1243 5.6547-5.1174 10.064-0.86578 5.1916 5.0055-3.8736 4.6674-12.731 4.7543-18.978 0.18641zm29.229-12.996c0-12.981 0.814-16.508 3.8096-16.508 2.3703 0 3.8095 2.3986 3.8095 6.3492 0 5.0794 1.2698 6.3492 6.3492 6.3492s6.3492-1.2698 6.3492-6.3492c0-3.4921 1.1429-6.3492 2.5397-6.3492 1.4326 0 2.5397 7.1958 2.5397 16.508 0 9.3122-1.1071 16.508-2.5397 16.508-1.3968 0-2.5397-3.4286-2.5397-7.619 0-6.4338-0.9877-7.619-6.3492-7.619-5.3616 0-6.3492 1.1852-6.3492 7.619 0 5.0794-1.2699 7.619-3.8095 7.619-2.9956 0-3.8096-3.5273-3.8096-16.508zm39.546 12.517c-2.195-2.195-3.9909-7.8277-3.9909-12.517 0-9.8512 5.51-16.508 13.664-16.508 9.6733 0 15.288 6.0629 15.288 16.508 0 14.608-15.232 22.246-24.962 12.517zm15.819-4.136c7.6843-7.6843-0.4374-23.642-9.2287-18.133-5.3267 3.338-6.8465 12.69-2.8457 17.511 3.7078 4.4677 8.0073 4.6892 12.074 0.62212zm20.825 3.0476c-9.8643-9.8644-3.4541-27.937 9.9091-27.937 8.9949 0 15.488 7.1056 15.488 16.949 0 14.414-15.335 21.049-25.397 10.987zm14.261-1.9436c5.2746-3.4749 6.435-12.553 2.1519-16.836-4.8773-4.8772-6.7954-5.0596-10.826-1.0295-5.4006 5.4006-2.1291 19.954 4.4445 19.771 0.7682-0.0203 2.6713-0.87852 4.2291-1.9048zm18.755-9.4849c0-12.981 0.814-16.508 3.8095-16.508 2.9245 0 3.8095 3.2452 3.8095 13.968 0 13.827 0.077 13.968 7.6191 13.968 4.1905 0 7.619 1.1428 7.619 2.5397 0 1.3968-5.1428 2.5397-11.428 2.5397h-11.429zm42.298 11.864c-5.5789-6.1645-5.3458-18.931 0.4412-24.168 10.65-9.6382 25.832-1.5593 25.832 13.746 0 13.247-17.452 20.17-26.273 10.422zm14.637-1.9765c5.29-2.0299 5.4551-17.681 0.2078-19.694-6.9999-2.6861-11.429 1.1377-11.429 9.8674 0 4.623 1.4286 8.982 3.1746 9.6865 1.746 0.70453 3.3669 1.3712 3.6018 1.4815 0.2349 0.11022 2.235-0.49318 4.4444-1.3411zm19.255-9.6754v-16.72h10.009c5.5049 0 10.715 1.1428 11.578 2.5397 0.9157 1.4817-1.6668 2.5397-6.1993 2.5397-5.2126 0-7.769 1.2535-7.769 3.8095 0 2.3704 2.3986 3.8095 6.3492 3.8095 3.4921 0 6.3492 1.1429 6.3492 2.5397 0 1.3968-2.7812 2.5397-6.1805 2.5397-4.8056 0-6.3593 1.5101-6.9841 6.7883-0.442 3.7336-2.2322 7.2574-3.9782 7.8307-2.3238 0.76305-3.1746-3.4386-3.1746-15.677zm39.133 12.799c-0.7381-1.9235-0.9879-9.0664-0.5552-15.873 0.6493-10.213 1.6344-12.376 5.637-12.376 3.4776 0 5.6784 2.8748 7.7768 10.159l2.9266 10.159 2.4772-10.159c1.8434-7.5593 3.7526-10.159 7.4613-10.159 4.3908 0 4.9841 1.7889 4.9841 15.026 0 9.7637-1.1118 15.397-3.1746 16.085-2.1447 0.71492-3.2597-2.1001-3.437-8.6773l-0.2625-9.7354-2.5295 9.5238c-1.3912 5.2381-4.0167 9.5238-5.8345 9.5238-1.8177 0-4.4432-4.2857-5.8344-9.5238l-2.5295-9.5238-0.2625 9.5238c-0.2584 9.377-4.2191 12.865-6.8433 6.0265zm38.524-2.217c4.7507-15.009 11.522-27.628 14.324-26.694 3.7278 1.2426 15.598 29.803 13.329 32.072-0.8792 0.87919-3.0597-0.39969-4.8455-2.8419-3.975-5.4362-15.57-5.8525-17.574-0.63093-2.4102 6.2809-7.2659 4.5139-5.2342-1.9048zm16.311-10.644c0-2.0128-1.1428-4.366-2.5397-5.2293-1.3968-0.86329-2.5396 0.78354-2.5396 3.6596s1.1428 5.2293 2.5396 5.2293c1.3969 0 2.5397-1.6468 2.5397-3.6596zm22.857 2.3898c0-12.275-0.6157-13.968-5.0794-13.968-2.7937 0-5.0794-1.1428-5.0794-2.5397s5.7143-2.5397 12.698-2.5397c6.9842 0 12.698 1.1428 12.698 2.5397s-1.7143 2.5397-3.8096 2.5397c-2.9245 0-3.8095 3.2452-3.8095 13.968s-0.885 13.968-3.8095 13.968-3.8095-3.2452-3.8095-13.968zm22.857-2.5397c0-12.409 0.8478-16.652 3.1746-15.886 1.746 0.57504 3.5398 3.5274 3.9862 6.5609 0.4994 3.3941 2.6292 5.5154 5.5376 5.5154s5.0382-2.1213 5.5377-5.5154c0.4463-3.0334 2.2401-5.9858 3.9861-6.5609 2.3268-0.76627 3.1746 3.4763 3.1746 15.886 0 12.408-0.8481 16.653-3.1746 15.889-1.746-0.57331-3.5362-4.0971-3.9782-7.8307-0.5501-4.6472-2.2992-6.7883-5.5456-6.7883-3.2463 0-4.9954 2.141-5.5456 6.7883-0.442 3.7336-2.2322 7.2574-3.9782 7.8307-2.3265 0.76394-3.1746-3.481-3.1746-15.889zm35.556 0v-16.508h11.428c6.2857 0 11.429 1.1428 11.429 2.5397s-4 2.5397-8.8889 2.5397c-6.2081 0-8.8889 1.1489-8.8889 3.8095 0 2.5397 2.5397 3.8095 7.6191 3.8095 4.1904 0 7.619 1.1429 7.619 2.5397 0 1.3968-3.4286 2.5397-7.619 2.5397-5.9259 0-7.6191 1.1287-7.6191 5.0794 0 4.1119 1.6932 5.0794 8.8889 5.0794 4.8889 0 8.8889 1.1428 8.8889 2.5397 0 1.3968-5.1429 2.5397-11.429 2.5397h-11.428zm30.476 0.21156c0-14.917 0.5371-16.719 4.9815-16.719 3.6834 0 5.7857 2.8128 8.0676 10.794l3.0862 10.794 2.4519-10.794c1.805-7.9456 3.6971-10.794 7.1705-10.794 4.1143 0 4.7185 2.1139 4.7185 16.508 0 18.055-4.9543 23.422-5.2745 5.7143l-0.195-10.794-3.0037 9.9552c-3.9043 12.94-8.8273 14.532-11.122 3.5964l-1.7776-8.4722-1.3772 7.4095c-0.7574 4.0752-2.8057 7.8848-4.5517 8.4656-2.3252 0.77349-3.1746-3.4177-3.1746-15.664zm38.095 13.983c0-1.2725 2.4633-8.7507 5.474-16.618 3.5688-9.3257 6.7466-14.045 9.1302-13.559 2.7662 0.56376 15.872 26.7 15.872 31.653 0 2.7354-7.326 0.1859-8.5375-2.9711-0.804-2.0952-4.2326-3.8095-7.619-3.8095-3.3865 0-6.8151 1.7143-7.6191 3.8095-1.5838 4.1275-6.7006 5.2698-6.7006 1.4959zm17.739-12.289c-0.05-2.4314-4.9495-10.099-5.0016-7.8268-0.02 0.93339-0.7326 3.5048-1.5805 5.7143-1.0115 2.6362-0.1384 4.0172 2.5397 4.0172 2.2447 0 4.0638-0.85714 4.0424-1.9048zm22.896 0.635c0-12.275-0.6157-13.968-5.0794-13.968-2.7936 0-5.0793-1.1428-5.0793-2.5397s5.7143-2.5397 12.698-2.5397c12.746 0 17.113 3.3326 7.619 5.8152-4.2407 1.109-5.0793 3.4642-5.0793 14.264 0 7.1149-1.1429 12.936-2.5397 12.936s-2.5397-6.2857-2.5397-13.968zm22.857-2.5397c0-9.3122 1.107-16.508 2.5396-16.508 1.4327 0 2.5397 7.1958 2.5397 16.508 0 9.3122-1.107 16.508-2.5397 16.508-1.4326 0-2.5396-7.1958-2.5396-16.508zm16.652 10.863c-11.313-16.152 6.7505-36.622 20.332-23.04 5.0042 5.0042 0.5601 8.1001-5.0016 3.4843-5.7987-4.8125-11.665-0.44092-11.665 8.6926 0 9.989 6.9411 14.186 12.006 7.2588 2.2912-3.1333 4.0465-3.6508 5.9446-1.7527 3.7616 3.7616-3.8978 11.002-11.639 11.002-3.3458 0-7.7814-2.5094-9.9773-5.6445zm34.234 1.9462c-1.6881-2.034-2.2897-4.9596-1.337-6.5012 1.1569-1.8719 2.7947-1.35 4.9308 1.5713 1.916 2.6203 4.8731 3.7315 7.3752 2.7714 6.3882-2.4514 4.9969-6.0588-3.4757-9.0124-4.2089-1.4672-8.3368-4.4507-9.1731-6.63-3.5981-9.3767 12.665-15.781 19.416-7.6458 4.4304 5.3383 1.5586 7.336-4.8196 3.3528-3.8765-2.4209-6.0108-2.5395-8.1001-0.4501-2.0894 2.0894-0.4924 3.6107 6.0612 5.7735 4.894 1.6152 9.5706 4.6891 10.392 6.8311 2.0101 5.2382 2.0443 5.106-2.4965 9.6468-5.0077 5.0077-14.735 5.1593-18.774 0.29265zm36.93-2.016c4.245-13.412 11.252-27.302 13.772-27.302 2.52 0 9.5266 13.89 13.772 27.302 1.3499 4.2647 0.799 5.7143-2.1719 5.7143-2.1894 0-3.9807-1.7143-3.9807-3.8095 0-2.5084-2.5095-3.8095-7.3473-3.8095-4.1882 0-7.9759 1.638-8.8092 3.8095-2.4102 6.2809-7.2659 4.5139-5.2342-1.9048zm16.311-10.644c0-2.0128-1.1428-4.366-2.5396-5.2293-1.3969-0.86329-2.5397 0.78354-2.5397 3.6596s1.1428 5.2293 2.5397 5.2293c1.3968 0 2.5396-1.6468 2.5396-3.6596zm20.318-0.14984c0-9.6712 1.0873-16.508 2.6253-16.508 1.444 0 5.1582 4.2857 8.254 9.5238l5.6286 9.5238 0.7976-9.6812c1.2981-15.756 6.8215-9.973 6.8215 7.1415 0 18.01-3.6385 20.203-11.783 7.1024l-5.9945-9.6421-0.7882 9.5238c-1.3197 15.945-5.561 10.618-5.561-6.9841zm33.016 0v-16.508h8.4034c10.869 0 16.542 4.3981 18.494 14.339 2.0964 10.678-5.6166 18.677-18.008 18.677h-8.8889v-16.508zm17.27 8.381c6.2888-6.2888 1.9553-19.81-6.3492-19.81-2.2199 0-3.3016 3.7444-3.3016 11.429 0 11.721 3.3778 14.654 9.6508 8.381zm28.393 4.2561c-4.6461-5.5983-0.991-7.7038 6.4554-3.7186 4.8426 2.5917 7.1106 2.7096 9.3348 0.48538 2.224-2.2242 0.7439-3.8547-6.0927-6.7112-10.612-4.434-13.5-9.9045-8.0873-15.318 4.9823-4.9822 14.679-4.9884 18.809-0.0127 4.4629 5.3778 0.8226 8.0553-5.5454 4.0784-3.6737-2.2943-6.0681-2.4822-7.9282-0.62202-1.86 1.8601-1.1944 3.1289 2.2042 4.2013 12.87 4.061 17.014 10.695 11.117 17.8-4.014 4.8365-16.192 4.7263-20.267-0.18336zm38.146-10.097c0-12.275-0.6156-13.968-5.0794-13.968-2.7936 0-5.0793-1.1428-5.0793-2.5397s5.7142-2.5397 12.698-2.5397c6.9841 0 12.698 1.1428 12.698 2.5397s-1.7143 2.5397-3.8095 2.5397c-2.9245 0-3.8096 3.2452-3.8096 13.968s-0.885 13.968-3.8095 13.968c-2.9244 0-3.8095-3.2452-3.8095-13.968zm17.778 11.655c0-6.1239 11.249-30.702 14.052-30.702 4.1346 0 16.897 31.4 13.295 32.709-1.4578 0.52981-3.6925-0.89877-4.9661-3.1746-2.9064-5.1935-13.726-5.4201-15.68-0.32838-1.584 4.1274-6.7007 5.2697-6.7007 1.4958zm17.739-12.289c-0.051-2.4314-4.9496-10.099-5.0017-7.8268-0.025 0.93338-0.7324 3.5048-1.5804 5.7143-1.0116 2.6362-0.1371 4.0172 2.5397 4.0172 2.2448 0 4.0637-0.85714 4.0424-1.9048zm22.896 1.667c0-10.8-0.8386-13.155-5.0794-14.264-9.4938-2.4827-5.1273-5.8152 7.6191-5.8152s17.113 3.3326 7.619 5.8152c-4.2407 1.109-5.0793 3.4642-5.0793 14.264 0 7.1149-1.1429 12.936-2.5397 12.936-1.3969 0-2.5397-5.8213-2.5397-12.936zm22.857-3.5718c0-9.3122 1.1071-16.508 2.5397-16.508 1.4327 0 2.5397 7.1958 2.5397 16.508 0 9.3122-1.107 16.508-2.5397 16.508-1.4326 0-2.5397-7.1958-2.5397-16.508zm15.331 12.81c-4.816-5.8027-0.4927-10.15 5.0791-5.1073 2.5668 2.3231 5.8819 3.4729 7.3668 2.5552 4.6723-2.8875 2.9646-5.8588-4.9528-8.6189-4.2088-1.4672-8.3368-4.4507-9.1731-6.63-2.0854-5.4345 3.5159-11.517 10.606-11.517 6.8498 0 16.336 8.0565 11.417 9.6962-1.7061 0.56871-4.3733-0.23746-5.9273-1.7914-3.4992-3.4992-9.4286-3.7003-9.4286-0.3198 0 1.3781 4 4.1769 8.8889 6.2196 9.2274 3.8555 11.596 10.409 5.8413 16.164-4.2124 4.2124-16.004 3.8233-19.717-0.65066zm38.003-10.27c0-12.275-0.6157-13.968-5.0794-13.968-2.7936 0-5.0794-1.1428-5.0794-2.5397s5.7143-2.5397 12.698-2.5397c12.746 0 17.113 3.3326 7.619 5.8152-4.2408 1.109-5.0794 3.4642-5.0794 14.264 0 7.1149-1.1428 12.936-2.5396 12.936-1.3969 0-2.5397-6.2857-2.5397-13.968zm22.857-2.5397c0-9.3122 1.1071-16.508 2.5397-16.508s2.5397 7.1958 2.5397 16.508c0 9.3122-1.1071 16.508-2.5397 16.508s-2.5397-7.1958-2.5397-16.508zm16.652 10.863c-11.241-16.049 4.959-35.001 20.319-23.77 6.2047 4.5369 2.606 8.704-3.97 4.5971-7.4514-4.6535-12.683-1.226-12.683 8.3089 0 9.989 6.9412 14.186 12.006 7.2588 2.291-3.1333 4.0462-3.6508 5.9443-1.7527 3.7618 3.7616-3.8976 11.002-11.639 11.002-3.3457 0-7.7815-2.5094-9.9774-5.6445zm34.234 1.9462c-1.6881-2.034-2.2898-4.9596-1.3371-6.5012 1.1568-1.8719 2.7946-1.35 4.9308 1.5713 1.9159 2.6203 4.8731 3.7315 7.3752 2.7714 6.3596-2.4404 5.0342-5.5475-4.0772-9.5578-9.0001-3.9614-11.006-11.502-4.2027-15.794 5.3506-3.3751 17.536-0.18565 17.536 4.59 0 4.57-1.155 4.669-7.5901 0.65013-3.6691-2.2913-5.729-2.3635-7.8184-0.27413-2.0894 2.0894-0.4924 3.6107 6.0612 5.7735 4.894 1.6152 9.5706 4.6891 10.393 6.8311 2.0099 5.2382 2.0441 5.106-2.4966 9.6468-5.0077 5.0077-14.735 5.1593-18.774 0.29265zm-1454.1-65.931-22.857-13.189-0.6912-47.538c-0.5714-39.303-0.063-47.779 2.9352-48.93 3.085-1.1839 37.014 15.873 42.89 21.562 1.078 1.0436 1.6494 24.259 1.2699 51.59l-0.6902 49.693zm208.89-5.6422-19.682-11.534v-138.81l-74.616 42.304-20.727-14.374c-17.487-12.127-20.091-14.816-16.66-17.203 12.836-8.9286 109.33-64.473 112.01-64.473 1.7627 0 13.34 5.8002 25.728 12.889l22.524 12.889v95.047c0 88.875-0.2886 95.039-4.4444 94.924-2.4445-0.0676-13.302-5.313-24.127-11.656zm-163.03 1.2122c-2.4106-7.2014-11.574-39.573-11.574-40.888 0-2.0426 47.14-29.815 50.608-29.815 5.6194 0 43.589 23.441 42.633 26.321-1.0181 3.0665-25.118 17.811-59.583 36.454-15.277 8.2635-21.253 10.409-22.084 7.9284zm483.66-20.385c7.6826-4.5156 19.924-14.137 27.202-21.38l13.234-13.17-5.0262-14.3c-2.7644-7.8652-5.7399-21.129-6.6122-29.475l-1.5861-15.175-8.7227 9.5279c-5.3979 5.8963-8.0254 7.5919-6.8934 4.4486 13.82-38.376 19.078-56.827 21.282-74.688 1.4496-11.745 3.0221-21.741 3.4944-22.214 1.2676-1.2676 27.119 6.6972 27.119 8.3553 0 0.77849-5.1429 10.85-11.429 22.381s-11.429 21.707-11.429 22.613c0 0.90595 7.6599 1.6472 17.022 1.6472 15.477 0 17.736-0.69214 24.891-7.627l7.869-7.6269 17.246 17.794-15.101 0.0772c-11.792 0.0602-14.096 0.66187-10.516 2.7447 3.1514 1.8333 3.8088 3.603 2.1024 5.6592-1.3657 1.6455-4.2276 10.514-6.3598 19.708-2.1323 9.1942-6.7864 24.446-10.342 33.894-3.5561 9.4474-5.7446 18.344-4.8634 19.769 0.8812 1.4258 10.875 6.9893 22.208 12.363 11.333 5.3741 19.401 9.8026 17.928 9.841-1.473 0.0384-7.0481 4.0725-12.389 8.9647l-9.7108 8.8948-7.9283-4.9074c-4.3606-2.699-11.252-8.381-15.313-12.626l-7.3848-7.7192-12.376 9.0848c-12.11 8.8894-28.738 16.331-43.966 19.677-5.9152 1.2996-4.4954-0.16203 6.3492-6.5361zm55.621-83.969c2.9579-15.714 5.3675-30 5.3547-31.746-0.015-2.0542-3.9594-3.1746-11.176-3.1746-10.59 0-11.352 0.49905-15.109 9.8864-3.1148 7.7847-3.39 11.969-1.2948 19.683 3.7598 13.841 12.578 33.923 14.895 33.923 1.0734 0 4.3717-12.857 7.3296-28.571zm381.2 87c0-2.9747-4.127-8.053-10.005-12.311l-10.005-7.2474 12.124 1.165c16.233 1.5598 26.207-3.8326 32.984-17.833 5.9118-12.212 10.457-33.051 10.457-47.946v-9.8121h-47.982c-40.732 0-48.208 0.58733-49.474 3.8867-1.293 3.3695-2.8781 3.1793-11.911-1.429-8.0318-4.0975-9.9898-6.2976-8.5443-9.601 1.0313-2.357 3.7001-21.428 5.9307-42.381 2.2391-21.032 5.1905-38.073 6.5895-38.045 7.0242 0.13867 21.594 4.2652 22.981 6.5088 0.8677 1.4039 0.3865 3.9878-1.0693 5.7419-1.4558 1.7541-3.4146 7.9898-4.3528 13.857l-1.7058 10.668h85.514l18.205-17.777 11.216 11.428 11.216 11.428h-125.1l-1.3373 6.9841c-0.7355 3.8413-2.0764 12.984-2.9798 20.317l-1.6425 13.333h46.388c37.882 0 47.167-0.70578 50.641-3.8493 3.8291-3.4653 5.4456-3.183 16.204 2.83 10.677 5.9673 11.565 7.1221 8.337 10.833-2.0422 2.3478-4.3637 12.821-5.3387 24.084-2.235 25.822-9.1715 44.001-21.135 55.392-14.573 13.876-36.207 19.715-36.207 9.7728zm697.57 3.3703c-0.9313-0.9312-1.6932-40.493-1.6932-87.915v-86.222l5.7143 1.7543c12.595 3.8668 29.838 4.5419 33.72 1.3204 3.1703-2.6311 5.8248-2.6073 14.109 0.12673 10.805 3.566 15.425 7.841 10.314 9.5445-3.0669 1.0223-28.302 36.837-28.302 40.167 0 0.96587 5.0474 7.1522 11.216 13.748 18.933 20.241 20.437 42.904 3.7788 56.921-8.0899 6.8073-14.995 8.5351-14.995 3.752 0-1.5304-2.3634-6.1018-5.2523-10.159-5.0751-7.1273-5.0883-7.3762-0.3937-7.3762 7.6285 0 13.271-8.2219 13.209-19.248-0.056-9.958-7.3463-29.543-12.089-32.474-1.6282-1.0063-1.2749-8.0546 1.0024-19.996 5.0149-26.296 4.8597-27.331-4.096-27.331h-7.619v79.911c0 76.406-0.2159 80.026-4.9125 82.54-5.6287 3.0125-11.252 3.3963-13.712 0.9359zm-946.83-11.199c-8.8137-9.4831-8.9754-9.9653-3.3399-9.9653 3.2571 0 8.8536-1.1146 12.437-2.4768 5.9029-2.2443 6.5145-3.788 6.5145-16.443v-13.967l-39.791-0.69943c-29.064-0.51086-40.076-1.5552-40.847-3.874-0.8153-2.4523 8.2899-3.1746 40.02-3.1746h41.075l-0.8637-12.063-0.8636-12.064 11.645 0.82824c10.174 0.72364 12.186 2e-3 15.932-5.7143l4.2868-6.5425h-36.734c-21.75 0-37.374-1.036-38.304-2.5397-1.0202-1.6507 11.97-2.5397 37.11-2.5397 31.756 0 39.477-0.7213 43.132-4.0292 4.094-3.705 5.3873-3.4812 16.072 2.7803 18.377 10.77 18.45 10.631-8.6956 16.549-15.562 3.3928-20.317 7.6527-20.317 18.201v7.1336h20.831c19.846 0 21.215-0.37176 28.937-7.856l8.1053-7.856 10.428 9.4213c5.7356 5.1817 10.428 10.431 10.428 11.666s-17.808 2.2442-39.574 2.2442h-39.574l0.8435 20.616c0.7993 19.537 0.508 20.87-5.5653 25.463-3.5248 2.6658-10.382 5.3015-15.238 5.8571-7.6188 0.87165-10.099-0.35609-18.091-8.9552zm345.54 3.4112c-3.4227-8.9813-5.8518-20.996-4.245-20.996 0.6809 0 15.294-2.8628 32.474-6.3617 17.18-3.4989 31.631-5.9667 32.114-5.4838 0.4828 0.48287-12.294 9.6508-28.394 20.373l-29.272 19.495zm47.215-2.4691c15.438-10.138 27.653-24.733 30.384-36.304 0.824-3.4921 2.4171-14.154 3.5403-23.694l2.0422-17.345-8.4465 1.5846c-7.8241 1.4678-8.7745 0.89689-12.896-7.7469-4.4331-9.2964-4.4264-9.347 1.7872-13.446 12.03-7.9364 20.632-16.215 24.381-23.465l3.7836-7.3165h-18.963c-10.43 0-19.669-1.1429-20.533-2.5397-1.024-1.6569 14.207-2.5397 43.819-2.5397h45.389l14.636-15.277 8.3951 8.1368c4.6172 4.4752 8.395 9.0554 8.395 10.178s-12.068 2.0415-26.816 2.0415c-17.264 0-26.256 0.90634-25.244 2.5444 0.8649 1.3994-1.0676 3.58-4.2946 4.8456-3.2269 1.2656-10.962 7.5492-17.19 13.964l-11.322 11.662h50.262l-7.2996-7.619c-8.4469-8.8167-6.0624-9.5227 13.022-3.8554 20.612 6.121 31.226 21.83 21.394 31.662-2.8652 2.8651-6.9404 5.2093-9.0562 5.2093-3.2399 0-12.174-11.373-14.622-18.613-0.8995-2.6609-55.181 8.5817-55.181 11.429 0 1.1574 2.5714 2.1219 5.7142 2.1433 11.555 0.0787 12.503 2.6186 8.3492 22.366-2.1082 10.022-5.4081 21.992-7.3331 26.599-6.3088 15.099-28.505 29.687-51.175 33.634l-10.159 1.7685zm259.47 7.717c-0.9313-0.9312-1.6932-23.903-1.6932-51.048v-49.355l-23.278 0.88973c-17.018 0.65041-23.564 0.0358-24.339-2.2849-0.7997-2.3945 4.9992-3.1746 23.598-3.1746h24.658l-1.1162-37.102-1.1162-37.102 11.176 1.2597c13.048 1.4706 18.402 5.3406 13.782 9.9608-2.0259 2.026-3.0476 13.093-3.0476 33.016v29.968h8.1468c5.8324 0 10.703-2.471 17.143-8.6978l8.996-8.6979 25.397 22.371-29.841 0.0523-29.841 0.0521v49.252c0 42.569-0.545 49.461-4.0173 50.794-5.3043 2.0354-12.495 1.9608-14.607-0.15162zm157.93-8.8041c-8.8008-9.3312-8.9671-9.8203-3.34-9.8203 3.2572 0 8.8536-1.1146 12.437-2.4768 5.903-2.2443 6.5146-3.788 6.5146-16.443v-13.967l-39.791-0.69943c-29.064-0.51086-40.076-1.5552-40.846-3.874-0.8152-2.4518 8.2441-3.1746 39.791-3.1746h40.846v-24.446l11.702 0.15949c9.4073 0.12825 12.456-0.96109 15.548-5.5547l3.8456-5.7143h-36.985c-21.917 0-37.625-1.0347-38.555-2.5397-1.0215-1.6526 12.582-2.5397 38.944-2.5397 33.669 0 40.76-0.64358 41.975-3.8095 2.0429-5.3233 4.018-4.8801 18.126 4.067 14.236 9.0281 13.556 9.9625-10.899 14.981-16.852 3.4582-20.844 7.0738-20.844 18.88 0 6.5022 0.048 6.5162 22.382 6.5162 21.571 0 22.647-0.27706 29.707-7.6456l7.3249-7.6456 9.6582 9.4309c5.312 5.187 9.6582 10.342 9.6582 11.455s-17.429 2.0216-38.73 2.0183l-38.73-5e-3 0.8127 21.281 0.8127 21.281-11.138 5.392c-14.903 7.2144-19.308 6.4705-30.225-5.1052zm265.12 6.7027c-11.18-4.859-13.314-12.011-13.314-44.625 0-21.093-0.7939-27.771-3.3016-27.771-5.5283 0-9.3955 5.6811-9.4217 13.841-0.036 11.25-10.562 31.704-21.894 42.543-11.672 11.164-25.166 17.267-38.181 17.267h-9.4692l13.268-6.6118c19.933-9.9329 32.81-29.407 35.282-53.357l1.4121-13.682h-7.8246c-4.3034 0-8.5307-1.1428-9.394-2.5397-1.0204-1.6511 12.101-2.5397 37.503-2.5397 38.393 0 39.176-0.11023 45.037-6.3492 3.2805-3.4921 7.266-6.3492 8.8564-6.3492 3.0103 0 16.54 13.007 16.54 15.901 0 0.90999-8.2857 1.9903-18.413 2.4007l-18.413 0.74618-0.7385 22.543c-0.6009 18.345 0.063 23.429 3.5682 27.302 9.4873 10.483 26.23 3.6179 34.052-13.963 4.2644-9.5853 4.6801-9.893 4.8442-3.5869 0.099 3.7939 2.0714 10.866 4.384 15.716 3.9291 8.2392 3.9202 9.2518-0.1321 15.438-2.3855 3.641-7.2094 7.7119-10.719 9.0464-9.346 3.5534-33.989 2.7789-43.531-1.3681zm-1341.6 0.33135c0-0.56109 6-3.984 13.333-7.6063 7.3333-3.6224 17.184-10.228 21.891-14.679l8.5577-8.0928-8.5577-4.4963c-4.7068-2.473-11.023-3.9044-14.036-3.181-3.0128 0.72343-7.8887 0.0254-10.835-1.552l-5.3576-2.8672 13.264-22.634h-8.9803c-13.773 0-13.62-4.6886 0.1813-5.5726 11.768-0.7537 12.236-1.0951 15.857-11.57 2.51-7.2609 5.2115-10.794 8.254-10.794 3.4633 0 4.5227-2.0526 4.5227-8.7629v-8.7629l-18.4 13.842c-10.12 7.6132-19.36 13.842-20.534 13.842-1.1735 0 1.8083-5.4286 6.6261-12.063s11.857-17.032 15.642-23.104l6.8828-11.041-13.302 0.88226c-9.0436 0.59984-13.643-0.1341-14.368-2.2924-0.7908-2.3543 3.9099-3.1746 18.193-3.1746h19.259v-22.857c0-24.638 0.5331-25.426 13.803-20.38 6.246 2.3747 6.5146 3.317 6.5146 22.857v20.38h8.0902c4.8111 0 10.473-2.2382 13.968-5.5221l5.878-5.5221 6.3492 5.9648c3.492 3.2806 6.3492 6.9084 6.3492 8.0617 0 1.1534-9.1429 2.097-20.318 2.097-15.51 0-20.317 0.82332-20.317 3.4792 0 2.2527 4.1342 3.9452 11.727 4.8011 14.856 1.6745 25.286 10.962 22.916 20.405-0.8711 3.4707-3.308 6.972-5.4153 7.7806-5.1455 1.9745-11.45-0.66654-11.45-4.7964 0-4.0173-12.189-18.971-15.464-18.971-1.2727 0-2.3139 4.5959-2.3139 10.213 0 8.4818-1.0974 10.713-6.4737 13.163-5.4302 2.4742-5.83 3.3097-2.4806 5.1842 3.5249 1.9726 3.3609 3.0347-1.3988 9.0595l-5.3919 6.8249 9.3196 0.79881c5.1257 0.43931 10.98-0.57956 13.01-2.2642 2.9208-2.424 5.7976-2.1129 13.791 1.4917 9.2744 4.1822 13.382 8.8626 7.7778 8.8626-1.2774 0-5.2814 5.2939-8.8977 11.764l-6.5751 11.764 6.5236 6.0458c7.371 6.8312 7.7192 17.687 0.7081 22.075-3.2466 2.032-6.1909 1.1303-12.821-3.9268l-8.6067-6.5646-10.036 6.0777c-12.135 7.3489-46.861 18.711-46.861 15.333zm57.109-51.45c5.5022-13.168 5.0457-14.037-6.9167-13.169-9.7277 0.70601-11.33 1.8168-16.698 11.575l-5.9379 10.794h12.855c12.373 0 12.999-0.34466 16.698-9.199zm673.64 47.929c-3.1828-3.5265-4.1821-12.182-4.838-41.908l-0.8268-37.464 8.1041 3e-3c4.4572 2e-3 8.8452 1.2026 9.7509 2.6682 0.9057 1.4655 1.8304 16.037 2.0546 32.381l0.4079 29.717 7.7541 0.75855c10.561 1.0331 20.543-7.3289 24.566-20.577l3.2358-10.657 1.8281 11.429c1.0055 6.2857 2.5374 15.529 3.4044 20.541 2.5174 14.552-2.4683 17.554-29.147 17.554-18 0-23.053-0.85415-26.294-4.4444zm110.73-6.3492c-3.7722-7.1173-4.2705-14.683-3.6181-54.939l0.7569-46.685-14.225 1.1797c-7.8237 0.64879-14.225 0.22857-14.225-0.93407 0-1.1625 5.5743-2.1137 12.388-2.1137 7.8019 0 13.534-1.3824 15.486-3.7343 2.7048-3.259 4.3607-3.0908 13.01 1.3214 10.371 5.2908 11.628 7.2978 7.2915 11.635-1.6036 1.6034-2.3421 15.156-1.9048 34.955l0.7139 32.336 15.238-9.8151c23.418-15.084 23.215-14.996 17.727-7.7129-21.457 28.473-40.888 52.598-42.423 52.673-1.0118 0.049-3.8083-3.6251-6.2141-8.1648zm-1422.4-26.968-20.89-11.763-0.062-29.991c-0.034-16.495 0.7953-29.505 1.8429-28.912 1.0476 0.59373 11.333 6.4755 22.857 13.071l20.952 11.991v27.564c0 15.16-0.8571 28.068-1.9048 28.683-1.0476 0.61539-11.306-4.1743-22.795-10.644zm1190.5-18.671c-1.669-5.5705-3.6467-11.724-4.3949-13.673-0.8971-2.3377 0.4495-3.5452 3.9535-3.5452 3.4469 0 9.3419-5.1309 16.778-14.603 6.3052-8.0318 11.465-15.584 11.466-16.783 9e-4 -1.199-2.9889-1.4295-6.6439-0.51217-20.176 5.064-20.094 5.0829-23.303-5.3429-2.6732-8.6868-2.4657-10.155 1.9148-13.552 5.4805-4.2496 13.205-21.097 19.325-42.149 4.4245-15.22 4.013-15.093 23.312-7.2001 7.4426 3.0439 11.438 8.7143 6.1405 8.7143-2.3409 0-34.497 45.557-33.068 46.85 0.4929 0.44607 4.6324 1.6116 9.1989 2.5901 7.973 1.7084 8.5073 1.3167 13.452-9.862 2.8322-6.4026 5.9531-11.637 6.9354-11.632 2.563 0.0127 18.294 9.8186 18.294 11.402 0 0.73037-6.967 9.6043-15.482 19.72-8.5152 10.116-17.7 21.484-20.41 25.263l-4.9277 6.871 36.778 1.4961-56.283 26.077zm-1134.7-6.4971-20.931-11.991-0.02-24.814-0.02-24.814-9.912 5.0567-9.9121 5.0567-9.1355-19.237c-5.0271-10.58-9.1381-19.998-9.1381-20.929 0-2.3901 34.136-23.178 38.061-23.178 1.7828 0 13.377 5.8002 25.765 12.889l22.524 12.889v50.603c0 38.828-0.7387 50.586-3.1746 50.531-1.7461-0.0396-12.594-5.4682-24.105-12.063zm933.1 10.442c-4.9814-4.9814 2.5662-5.9259 47.356-5.9259h49.049l7.1554-7.4687 7.1555-7.4687 10.977 9.1757c6.0375 5.0467 10.392 10.122 9.6778 11.278-1.5361 2.4855-128.9 2.8823-131.37 0.40933zm-204.36-39.45c-4.6165-4.6165-3.6948-10.326 3.1686-19.629 3.4189-4.6341 6.9898-11.948 7.9353-16.253l1.7192-7.8273 4.5352 5.6008c4.363 5.3881 6.2214 5.6008 48.941 5.6008h44.406l9.7901-26.652c5.3846-14.659 10.933-26.647 12.33-26.642 4.7658 0.0178 29.206 12.418 29.206 14.817 0 1.3155-5.4285 5.879-12.063 10.141-6.635 4.2622-16.581 12.381-22.103 18.043l-10.039 10.293h14.173c9.4858 0 15.216-1.257 17.327-3.8011 2.7719-3.34 4.3575-3.1251 13.07 1.7714 12.466 7.0066 20.025 14.728 14.417 14.728-2.0811 0-10.952 2.3534-19.714 5.2297-8.7618 2.8763-16.36 4.8006-16.884 4.2762-0.5244-0.52442 0.09-4.5921 1.3655-9.0392l2.319-8.0858-120.28 0.016-0.1904 8.8796c-0.3195 14.893-15.255 26.708-23.429 18.534zm811.56 0.30451c-6.1428-3.5778-5.5627-9.2796 1.9448-19.123 3.5142-4.6073 7.0964-11.913 7.9609-16.234l1.5716-7.8575 5.6018 5.2627c5.2858 4.9659 8.0749 5.2234 49.447 4.5661l43.845-0.69663 9.4506-25.249c5.198-13.887 10.702-25.666 12.232-26.176 3.4394-1.1465 28.58 11.363 28.58 14.221 0 1.1411-6.017 6.2189-13.372 11.284-7.3541 5.0651-17.293 13.255-22.085 18.2l-8.7141 8.9907h14.316c7.874 0 15.023-1.1429 15.886-2.5397 2.6807-4.3374 9.9756-2.8226 21.079 4.377 5.8669 3.8042 10.666 7.5184 10.664 8.254 0 1.1098-14.836 6.0745-36.087 12.079-3.8037 1.0747-4.0409 0.16839-1.9048-7.2798 1.342-4.679 2.4399-8.8006 2.4399-9.159 0-0.35843-26.857-0.65168-59.682-0.65168h-59.683v6.4753c0 8.2839-6.2286 20.384-11.542 22.423-5.3555 2.0551-6.6344 1.9304-11.95-1.1655zm268.57-17.574c-1.0108-1.6357 8.6044-2.5397 27.013-2.5397 27.617 0 28.825-0.23238 35.765-6.8818l7.183-6.8818 18.843 18.843h-43.617c-26.339 0-44.239-1.0061-45.187-2.5397zm-1734.6-13.157c-9.7778-5.8244-18.617-11.818-19.644-13.319-1.0262-1.5013-1.8833-9.2599-1.9047-17.241-0.037-13.874 0.3687-14.789 9.2393-20.816 8.8553-6.0173 9.6366-6.1217 17.143-2.2899 21.754 11.105 21.833 11.246 21.833 39.061 0 30.178-0.2737 30.328-26.667 14.606zm1714.7 1.3054c-3.6495-3.6494-1.3501-10.384 5.9258-17.354 4.1905-4.0147 7.6191-9.3714 7.6191-11.904 0-6.1225 4.2293-5.8588 7.619 0.47515 2.2672 4.2361 5.3176 5.0794 18.375 5.0794 12.177 0 14.979-0.67726 12.609-3.0476-1.6762-1.6762-3.0477-6.8942-3.0477-11.596s-1.183-10.758-2.629-13.46c-2.2174-4.1434-1.7806-4.9124 2.7908-4.9124 8.6314 0 22.931 7.8969 25.833 14.266 2.0579 4.5166 1.7026 7.3079-1.566 12.296l-4.2283 6.4532h16.921c12.54 0 17.686-1.0462 19.876-4.0404 2.6159-3.5772 4.2266-3.0676 14.049 4.4444 6.1019 4.6667 11.514 9.7604 12.027 11.319 0.5594 1.7011-4.1964 3.5147-11.895 4.536-7.0552 0.9359-14.656 2.4034-16.892 3.2612-3.3971 1.3036-3.7758 0.24661-2.3071-6.4408l1.7572-8.0003h-76.594v7.1111c0 3.9111-1.3714 8.4825-3.0476 10.159-3.2247 3.2247-20.327 4.2234-23.196 1.3545zm-1021.2-9.9169c-2.195-2.195-4.0046-7.6236-4.0215-12.063-0.018-4.4399-2.8077-12.93-6.2019-18.866-6.8962-12.061-5.0637-13.459 9.6073-7.3294 18.084 7.556 27.731 28.677 17.378 38.047-5.8328 5.2786-11.622 5.352-16.762 0.21232zm811.69 0.71246c-1.4963-1.8032-3.9616-8.946-5.478-15.873-1.5165-6.927-5.0378-15.737-7.8248-19.579l-5.0677-6.9841h5.2815c14.479 0 32.966 17.862 32.966 31.852 0 11.799-13.086 18.767-19.877 10.584zm-768.14-5.1499c-2.0623-1.6501-4.4576-8.5771-5.3228-15.393-0.8653-6.8162-3.9537-16.245-6.8632-20.952-5.7901-9.3687-4.0381-10.4 8.6579-5.095 11.841 4.9474 22.022 17.969 22.022 28.166 0 11.523-10.902 19.349-18.494 13.275zm807.49-0.88378c-0.9313-0.9312-1.6932-5.8804-1.6932-10.998 0-5.1178-2.7018-14.642-6.0039-21.164-6.7177-13.269-5.3965-14.143 10.071-6.6549 16.618 8.0444 24.711 24.394 17.307 34.964-3.7432 5.3442-15.825 7.7095-19.681 3.8531zm-1077.6-3.9283c-1.0476-1.695-2.6758-7.695-3.6184-13.333-0.9425-5.6384-2.5534-12.232-3.5798-14.653-1.6686-3.9358-1.0316-4.1104 6.0235-1.651 15.382 5.362 23.685 24.428 13.105 30.09-6.4273 3.4398-9.5992 3.3194-11.93-0.4527zm823.37-0.90921c-2.1951-2.195-3.9952-6.4807-4.0003-9.5238 0-3.0431-2.2743-9.2472-5.042-13.787-5.0288-8.2476-5.0288-8.254 0.091-8.254 13.719 0 30.357 12.738 30.357 23.241 0 5.726-6.7939 12.315-12.698 12.315-2.594 0-6.5125-1.7959-8.7075-3.9909zm-776.02-0.29569c0.064-3.549 9.0236-31.018 10.646-32.64 1.8299-1.83 16.195 5.2238 18.616 9.1411 0.9268 1.4997-0.4293 4.325-3.0136 6.2784-17.657 13.346-26.281 19.004-26.249 17.221zm648.19-3.9673c-1.4066-1.746-3.373-7.1746-4.3698-12.063s-3.4408-11.46-5.4312-14.603c-3.4451-5.44-3.2683-5.7143 3.6833-5.7143 19.145 0 33.514 22.267 20.329 31.502-6.9663 4.8793-10.798 5.1163-14.212 0.87888zm-1228.5-23.416-22.857-13.469-0.6739-72.668c-0.3706-39.968-0.076-72.668 0.655-72.668 0.7308 0 11.606 5.843 24.166 12.985l22.837 12.985v73.365c0 40.351-0.2857 73.27-0.6349 73.153s-10.921-6.2727-23.492-13.681zm282.54-9.4016-22.222-12.836v-50.507c0-51.885-0.2876-53.25-10.113-47.992-4.1765 2.2352-5.5884 0.18748-12.687-18.401l-7.9872-20.916 6.3895-5.091c3.5143-2.8 10.395-7.2462 15.291-9.8804l8.9018-4.7894 44.648 25.386 0.6875 51.144c0.3781 28.129 1.2808 51.144 2.0059 51.144 0.7252 0 5.5586-2.1506 10.741-4.7791l9.4226-4.7791 22.222 12.562c12.222 6.909 22.222 13.438 22.222 14.508 0 1.7715-63.778 38.56-66.244 38.211-0.5818-0.0823-11.058-5.9258-23.28-12.985zm-95.238-11.502-20.952-11.865v-22.067c0-19.751-0.9197-24.085-8.7652-41.301l-8.7652-19.234 8.817-5.4493 8.8172-5.4493 46.88 25.963-0.7457 45.67c-0.4102 25.119-1.553 45.654-2.5397 45.634-0.9867-0.0203-11.222-5.3761-22.746-11.902zm-132.4-13.182-10.568-20.314 11.073-6.489c6.09-3.5689 12.278-6.489 13.75-6.489 4.1756 0 43.86 22.897 43.86 25.307 0 2.0393-34.793 23.452-43.456 26.744-3.1287 1.1889-6.5761-3.2227-14.659-18.759zm-150.44-14.108c-9.035-5.1048-15.827-19.995-13.872-30.414 3.3547-17.882 25.638-29.033 41.562-20.798 11.015 5.6962 15.785 13.615 15.785 26.205 0 15.41-9.9712 26.252-25.479 27.703-7.1294 0.66725-13.818-0.33453-17.996-2.6955zm13.166-19.273c5.8262-3.1181 6.4765-13.229 1.1359-17.661-2.1198-1.7593-6.5021-2.4502-9.9895-1.5749-8.2596 2.073-10.843 10.64-5.1169 16.968 5.0701 5.6024 7.1192 5.9351 13.97 2.2683zm590.84 6.1224c-0.9902-0.99014-1.8003-18.141-1.8003-38.113 0-33.714-0.3636-36.507-5.0793-39.031-6.8914-3.6882-6.4008-11.716 1.013-16.573 6.6043-4.3273 9.9412-11.181 14.39-29.558 2.8494-11.769 2.9168-11.828 10.506-9.1826 8.9521 3.1207 15.62 15.88 11.916 22.801-1.2905 2.4114-7.4721 7.9109-13.737 12.221-6.2648 4.3103-11.39 8.9674-11.39 10.349s5.2932 7.6569 11.763 13.945l11.763 11.432-1.2375 17.296c-1.4587 20.386-12.541 44.244-21.123 45.472-2.8511 0.40812-5.994-0.0681-6.9841-1.0582zm178.62-3.2941c-1.4555-2.7196-2.6463-18.498-2.6463-35.063v-30.118l8.254-2.43c7.0428-2.0734 8.3643-3.7387 9.0061-11.349 0.5257-6.233-0.8128-10.599-4.4444-14.497-6.3249-6.7889-6.8957-15.949-0.9939-15.949 6.0839 0 22.983 18.735 24.941 27.651 2.198 10.007-2.2962 17.9-11.207 19.682l-7.1838 1.4368 1.3051 20.919c1.4465 23.187-1.9358 37.999-9.6152 42.109-3.7485 2.0062-5.3358 1.4941-7.4157-2.3922zm275.23 1.9844c-2.3016-3.724-6.1108-62.768-4.3462-67.367 1.0706-2.7898-0.018-2.968-5.4679-0.89576-17.569 6.6798-19.784-0.68602-5.4957-18.274 12.624-15.538 17.886-24.613 15.599-26.9-0.8865-0.88651-5.3521-1.2896-9.9236-0.89573-5.0406 0.43427-9.5561-0.78335-11.474-3.0939-2.6484-3.1912-1.5856-4.8486 6.5432-10.204 13.457-8.8657 29.854-11.245 36.437-5.288 7.3772 6.6763 6.2983 17.35-2.8012 27.714-4.2986 4.8959-7.1398 9.9951-6.3138 11.332s5.7716 3.8052 10.99 5.486c5.2186 1.6808 10.917 4.1898 12.663 5.5756 3.991 3.1677 4.1246 19.891 0.2273 28.445-2.4993 5.4852-4.6229 6.4687-13.968 6.4687h-11.021v20.484c0 19.654-2.6572 30.309-7.5585 30.309-1.2653 0-3.1058-1.3031-4.0901-2.8957zm28.124-65.623c2.5181-4.0743-3.5693-12.751-8.9458-12.751-3.5837 0-4.99 1.7298-4.99 6.1376 0 7.7309 10.241 12.591 13.936 6.6133zm468.6 66.725c-4.6405-1.6963-15.238-11.118-15.238-13.547 0-0.96616 6.5714-1.6241 14.603-1.4621l14.603 0.29458 0.8092-8.4324 0.8091-8.4324-19.112 0.71175c-10.511 0.39147-19.978-0.15449-21.037-1.2132-4.5767-4.5768 4.4397-10.773 21.028-14.451 10.496-2.327 16.243-4.6675 14.356-5.8467-2.4195-1.5121-2.1371-3.5064 1.2216-8.6328 4.3507-6.6399 4.3431-6.6593-1.9329-4.8858-15.468 4.3712-19.369 4.5333-22.36 0.92932-5.8971-7.1057-0.8045-10.919 19.033-14.252 15.037-2.5267 19.726-2.5666 21.2-0.1808 1.3714 2.2193 3.3752 1.5812 7.2724-2.3158 6.0398-6.0399 6.9633-10.438 2.2044-10.499-1.746-0.0224-14.293 1.8866-27.882 4.2421-19.291 3.3439-26.111 3.643-31.111 1.3648-8.178-3.7261-8.2027-9.935-0.056-13.648 6.3802-2.907 8.5445-10.58 3.8095-13.506-3.9057-2.414-3.0092-18.036 1.2376-21.56 7.0741-5.871 10.768-1.1708 11.952 15.211 0.7017 9.6999 2.5115 16.551 4.7645 18.034 7.1543 4.71 31.085-2.4889 36.324-10.927 4.6103-7.4246-0.3697-8.0421-8.6524-1.0728-15.087 12.695-22.801 7.6669-22.701-14.795l0.069-15.365 6.9158 8.2769c3.8037 4.5523 9.233 8.2666 12.065 8.254 7.9502-0.0353 15.862-6.8545 17.709-15.264 1.8829-8.573 2.1237-8.6965 9.3788-4.8136 4.7393 2.5363 5.0799 4.33 3.5878 18.894-1.5477 15.106-1.2427 16.468 4.9788 22.237 10.2 9.4581 7.6533 16.5-9.0573 25.043-14.48 7.4025-25.397 17.603-25.397 23.731 0 2.4631 3.9639 3.768 13.072 4.3028 9.0946 0.53407 13.92 2.1199 15.86 5.2121 4.2941 6.8449-1.1203 13.192-12.046 14.122-7.5957 0.64609-9.2691 1.791-9.2808 6.3492 0 3.0585-1.1926 9.8046-2.6331 14.991-2.19 7.8854-4.1641 9.8593-12.049 12.049-10.262 2.85-12.565 2.9573-18.319 0.85379zm-701.73-9.9874c-0.8923-0.89226 1.2029-4.98 4.656-9.0838 3.4532-4.1038 6.2784-9.1239 6.2784-11.156 0-6.3092-7.5723-7.0825-12.94-1.3216-6.8118 7.3116-9.8299 6.8069-13.235-2.2134-2.2077-5.8489-4.4536-7.619-9.6664-7.619-6.8171 0-10.038-3.7397-8.0693-9.3701 0.5809-1.6615 8.6982-5.5279 18.039-8.592 9.3403-3.0641 18.411-6.7018 20.157-8.0837 6.4859-5.1334 2.9134-7.4484-10.159-6.5829-7.3333 0.4855-13.905-0.078-14.603-1.2522-0.6984-1.1742 5.8731-4.4769 14.603-7.3392 14.665-4.8082 19.472-9.5893 13.408-13.337-1.3558-0.83793-5.8704 0.23748-10.033 2.3898-4.1621 2.1523-8.1957 3.9133-8.9635 3.9133-0.7677 0-1.3959-6.2183-1.3959-13.818s-1.1429-14.525-2.5397-15.388-2.5397-3.7879-2.5397-6.4991c0-6.0024 6.7559-6.4979 12.891-0.94547 3.752 3.3955 5.9388 3.5237 14.803 0.86784 8.7373-2.6178 10.388-4.1689 10.32-9.6983-0.044-3.6202-1.7587-8.8006-3.8095-11.512-5.5625-7.3543-4.6279-9.0384 5.0161-9.0384 18.831 0 22.745 23.588 7.5735 45.644-9.8925 14.381-9.8601 20.388 0.1099 20.388 7.8914 0 8.3939 5.3451 1.423 15.135l-5.0059 7.0301 15.255 1.3833c20.664 1.8738 27.772 6.7984 27.772 19.242 0 14.736-8.8979 21.841-27.445 21.914-10.902 0.0431-14.459-0.84035-14.459-3.5909 0-2.0064 3.5215-4.5606 7.8256-5.6759s9.9098-4.3308 12.457-7.1456c4.47-4.9393 4.4712-5.2948 0.035-10.197-5.2876-5.8428-25.406-7.0252-38.986-2.2912-10.454 3.6442-10.121 6.4071 1.0243 8.4979 4.9623 0.93094 9.6889 3.4296 10.504 5.5527 4.4475 11.59-12.96 37.135-20.302 29.793zm17.919-100.6c-0.5821-1.746-3.7249-3.1746-6.9842-3.1746-3.2592 0-6.4021 1.4286-6.9841 3.1746-0.698 2.0941 1.679 3.1746 6.9841 3.1746s7.6822-1.0805 6.9842-3.1746zm315.23 96.999c-3.3151-4.9699-3.9412-5.0324-12.887-1.2865-11.24 4.7064-22.344 1.8169-22.344-5.8144 0-6.2677 4.2527-9.5326 15.238-11.699 15.682-3.0921 17.778-4.1632 17.778-9.084 0-3.2518-1.2458-4.3504-3.8152-3.3645-2.0983 0.80522-6.8119 0.7119-10.475-0.20739-6.1515-1.5439-6.5663-2.4973-5.439-12.499 1.4141-12.546 7.1569-25.833 10.84-25.081 1.3969 0.28529 2.8911 5.1103 3.3207 10.722 0.4987 6.5158 2.0266 10.204 4.2277 10.204 2.4662 0 3.6891-4.7444 4.2984-16.677l0.8517-16.677-7.6191 1.3966c-4.1905 0.76812-9.2141 0.38796-11.164-0.84481-5.7538-3.6383-1.2327-10.373 6.9635-10.373 10.879 0 14.306-5.4393 8.0038-12.705-5.4214-6.251-6.7468-16.437-2.4818-19.073 1.4255-0.88096 6.0341 1.2949 10.242 4.8352 8.3291 7.0085 10.066 6.8104 30.154-3.4374 18.682-9.5309 39.215-4.4782 34.261 8.4309-0.7276 1.896-5.9316 4.8281-11.564 6.5157-15.175 4.5465-42.826 20.436-42.826 24.61 0 1.997 2.8846 4.9452 6.4101 6.5515 12.067 5.4981 9.8544 22.641-3.8704 29.986-6.1118 3.2709-7.2921 15.928-1.2699 13.617 2.0953-0.80402 3.8096-3.0539 3.8096-4.9997 0-1.9458 1.2198-3.5378 2.7108-3.5378 3.5633 0 0.9073 8.6284-6.7841 22.04-3.347 5.836-6.0855 13.55-6.0855 17.143 0 7.9263-5.603 8.6255-10.484 1.3082zm20.25-61.946c0.5613-2.8953-0.354-4.1164-2.5397-3.3886-1.8794 0.62583-3.812 3.1748-4.2946 5.6644-0.5613 2.8953 0.354 4.1164 2.5397 3.3886 1.8794-0.62583 3.812-3.1748 4.2946-5.6644zm13.494-42.243c7.1681-3.6569 9.5465-6.0984 7.7201-7.9248-3.0828-3.0828-21.205 4.8936-22.8 10.035-1.4197 4.5763 3.2551 3.922 15.08-2.1105zm14.835 105.13c-3.4921-0.70716-7.7778-2.459-9.5238-3.893-3.9556-3.2487-4.3657-39.045-0.4749-41.449 5.1763-3.1991 12.538 6.783 12.538 17v9.7651h27.43l3.0463-12.698c3.6578-15.248 10.159-17.569 10.159-3.6281 0 4.9887 1.7751 10.845 3.9447 13.015 6.592 6.592 3.533 14.367-7.0069 17.81-11.551 3.7731-31.569 5.8083-40.112 4.0781zm196.26 0.0819c-4.19-1.6973-27.058-36.327-25.209-38.175 0.8055-0.80561 7.5385 1.0005 14.962 4.0135 29.833 12.108 35.595 19.388 23.982 30.299-5.9241 5.5654-8.0538 6.1645-13.735 3.8634zm-92.133-5.4316c0-1.106 5.2108-7.106 11.58-13.333 12.314-12.04 26.516-31.767 26.516-36.83 0-1.6772-4.4231-3.7568-9.8288-4.6212-12.782-2.044-18.588-8.3661-12.063-13.137 2.5204-1.8431 8.9832-4.0945 14.361-5.0031 5.378-0.90861 10.96-3.0763 12.405-4.817 1.4448-1.7407 3.389-11.366 4.3205-21.389 1.7623-18.962 3.6323-21.14 12.542-14.612 4.001 2.9315 4.8358 6.329 4.4305 18.035l-0.4993 14.423 9.3882-1.6625c5.1634-0.91436 11.102-2.1469 13.198-2.7389 5.6251-1.5895 11.129 2.7754 9.3485 7.4144-0.8525 2.222-7.765 8.0156-15.361 12.874-14.018 8.9673-24.464 19.847-24.464 25.48 0 5.8631-17.523 26.042-29.507 33.98-11.009 7.2919-26.366 10.75-26.366 5.9365zm-646.25-2.9144c-0.8109-1.3121-0.7323-7.0264 0.1747-12.698 2.2298-13.944-3.9976-14.039-10.124-0.15408-3.7214 8.4346-5.7132 10.159-11.736 10.159-3.9896 0-9.0498-1.7959-11.245-3.9909-4.819-4.819-5.2015-16.24-0.7479-22.33 2.7808-3.8031 4.8616-4.0713 14.603-1.8824 7.1742 1.612 12.249 1.6636 13.773 0.14009 4.5424-4.542 10.742-2.4094 18.828 6.4764 4.4488 4.8889 9.2039 8.8889 10.567 8.8889 4.204 0 2.8235 14.562-1.5392 16.236-6.1905 2.3755-20.905 1.8249-22.554-0.84404zm-528.35-9.26c-23.394-13.792-24.133-15.177-24.088-45.144 0.052-34.704 0.6743-35.41 21.516-24.419 27.609 14.56 26.969 13.393 26.143 47.699-0.8401 34.87-1.1 35.111-23.571 21.863zm813.1-19.355c-2.9351-50.939-2.3102-64.775 3.0968-68.562 2.868-2.0088 5.9803-9.1606 7.7991-17.922 2.3599-11.367 4.0561-14.579 7.7001-14.579 4.6874 0 17.824 13.397 17.824 18.177 0 1.402-4.5714 4.3448-10.159 6.5396l-10.159 3.9905v45.381l9.5238-0.57337c5.2381-0.31536 10.952-0.41363 12.698-0.21839 3.956 0.44238 4.1572 8.5152 0.3081 12.364-2.1289 2.1289-1.4754 4.6351 2.5397 9.7393 7.8149 9.935 6.9486 13.807-3.0891 13.807-9.0506 0-15.041-4.8119-19.034-15.29l-2.3998-6.297-1.3651 6.3492c-0.7507 3.4921-2.3024 12.623-3.4481 20.29-1.4372 9.6179-3.3391 14.181-6.1333 14.713-3.4375 0.65542-4.3-3.5659-5.7027-27.909zm-689.22-3.9907-20.876-11.993-0.076-46.349c-0.042-25.492 0.4933-46.349 1.1894-46.349 0.696 0 10.978 5.4286 22.849 12.063l21.584 12.063 0.01 46.349c0.01 25.492-0.8493 46.317-1.8969 46.278-1.0476-0.039-11.299-5.4676-22.781-12.063zm373.79-8.352c-2.1279-3.443-3.2638-2.8982 19.734-9.4645 23.912-6.8276 27.99-7.0035 26.894-1.1601-0.5842 3.1163-5.7625 5.7208-17.329 8.7156-19.63 5.0826-27.039 5.5653-29.299 1.9091zm575.35-6.1667c-1.7327-2.0878-2.5347-6.1505-1.7821-9.0283 1.0154-3.883-0.2172-5.8351-4.7797-7.5697-8.1165-3.0859-7.7867-7.0868 0.8363-10.146 3.8412-1.3629 8.9389-3.6018 11.328-4.9753 2.3892-1.3736 6.1034-1.8222 8.2539-0.99703 4.5892 1.761 5.2364 13.853 0.97 18.119-2.2269 2.2269-2.158 3.8823 0.2841 6.8248 1.7732 2.1366 2.5607 5.6137 1.7498 7.7267-1.8965 4.9423-12.772 4.9719-16.86 0.0459zm265.66-1.662c-3.3562-4.7918-3.3737-6.3265-0.1447-12.572 2.0233-3.9128 3.679-9.4567 3.679-12.32 0-7.8107 8.3194-6.4653 13.421 2.1705 5.6468 9.5592 5.5373 18.705-0.2872 23.976-6.3144 5.7144-12.091 5.2795-16.668-1.2549zm-840.46-8.9035c-3.7706-3.7706-1.3948-8.4956 4.2716-8.4956 3.2972 0 10.266-2.8986 15.487-6.4414 13.447-9.1252 25.191-5.038 14.95 5.2029-6.6917 6.6918-30.948 13.495-34.708 9.7342zm342.46-10.952c-0.9338-1.511-0.9508-6.1488-0.038-10.306 1.2348-5.6221 0.6322-7.9537-2.3515-9.0986-6.0477-2.3207-4.8158-7.8626 2.1356-9.6073 12.653-3.1757 17.955 3.8653 16.262 21.593-0.6849 7.1705-1.9465 8.7355-7.5663 9.3859-3.7093 0.42926-7.5083-0.45577-8.4421-1.9667zm-624.81-17.569-20.318-11.969-0.6834-57.978-0.6834-57.978 5.7628 3.7124c3.1695 2.0418 13.477 8.0002 22.906 13.241l17.143 9.5285v60.074l7.8286-2.954c7.1397-2.694 9.5423-2.0228 27.302 7.6277 25.148 13.666 25.269 16.857 1.117 29.513-17.762 9.3073-18.604 9.49-26.032 5.6491l-7.6757-3.9693v8.9541c0 5.5867-1.1939 8.8719-3.1746 8.7355-1.7461-0.1202-12.318-5.6045-23.492-12.187zm269.84 2.0436c-5.5394-3.2264-5.7992-11.432-0.4272-13.493 2.2094-0.84786 7.4274-1.5416 11.596-1.5416 12.709 0 17.403-4.0503 17.403-15.018 0-7.2406-1.4749-10.794-5.7143-13.767-4.6173-3.2381-5.0396-4.4637-2.1996-6.3842 3.6432-2.4636 13.371-0.54212 22.798 4.5032 5.8596 3.136 6.8101 8.9362 3.0744 18.762-2.2498 5.9173-1.8324 6.264 9.0143 7.4866 13.013 1.4668 14.882 2.6535 12.786 8.1173-1.0081 2.6272-4.8478 3.9191-11.648 3.9191-5.5795 0-15.943 2.2857-23.031 5.0794-14.019 5.5256-26.667 6.4038-33.651 2.3363z" fill="#0b8d40"/>
   <path d="m2313.7 494.99c0-1.5348-3.2361-5.8205-7.1914-9.5238l-7.1914-6.7332 11.265-0.0752c9.6632-0.0645 12.468-1.3881 19.728-9.3098 10.647-11.618 16.406-30.663 16.406-54.257 0-23.279 2.9479-26.463 17.584-18.996 11.241 5.7345 12.376 7.9558 6.5428 12.797-2.5141 2.0864-3.8096 7.7635-3.8096 16.694 0 31.484-11.779 57.577-30.244 66.997-11.037 5.6306-23.089 6.8872-23.089 2.4073zm693.34-20.541c0-13.009 0.7556-51.874 1.6727-86.367l1.6673-62.714 7.09 3.6664c9.4639 4.894 26.775 4.7965 29.552-0.16635 1.9018-3.3983 3.5452-3.3557 14.496 0.37549 9.9822 3.4013 11.632 4.7452 8.6044 7.0075-2.0604 1.5395-9.6086 11.514-16.774 22.166l-13.027 19.367 6.5714 6.0297c10.907 10.007 21.094 27.917 21.094 37.085 0 15.689-9.7701 31.167-19.673 31.167-1.2259 0-4.7728-3.4405-7.8816-7.6456l-5.6526-7.6455 6.2903-2.3916c13.527-5.1428 14.554-24.124 2.446-45.163-6.1926-10.759-6.1974-10.825-2.2959-31.392 2.1503-11.335 3.9096-21.055 3.9096-21.599s-4.5555-0.98928-10.123-0.98928h-10.123l-0.6708 80.635-0.6704 80.635-16.508 1.5917v-23.653zm-1128.9 17.008c19.544-13.936 25.208-18.742 30.93-26.243l6.4733-8.4869-5.368-16.352c-2.9525-8.9937-5.2916-21.757-5.1982-28.362l0.1699-12.01 3.2128 10.159c3.7973 12.007 10.71 25.764 13.954 27.769 2.324 1.4363 8.4564-23.024 12.533-49.991l2.2077-14.603h-12.457c-12.208 0-12.553 0.21588-17.265 10.794-2.6447 5.9365-8.2435 14.794-12.442 19.683l-7.6334 8.8889 5.3134-13.968c8.1401-21.399 14.816-47.836 16.515-65.397 0.8445-8.7302 2.6662-15.873 4.0482-15.873 5.6943 0 22.15 6.0479 22.15 8.1407 0 1.2415-4.5714 10.587-10.159 20.767-5.5873 10.18-10.159 19.841-10.159 21.468 0 1.9563 5.7581 2.9579 17.004 2.9579 15.026 0 17.839-0.80008 24.184-6.8786l7.1797-6.8786 16.297 16.297-15.189 0.0772c-11.593 0.0589-14.133 0.69232-10.728 2.6753 3.1539 1.8367 3.8252 3.8607 2.2908 6.9069-1.1937 2.3699-4.2014 12.88-6.6838 23.356s-7.2735 25.294-10.647 32.928l-6.1335 13.88 5.8164 4.4694c3.199 2.4582 12.772 7.5275 21.272 11.265l15.456 6.7956-9.8346 8.8849c-8.9268 8.0649-10.393 8.5858-15.889 5.6446-3.3299-1.7822-10.274-7.5614-15.431-12.843l-9.3767-9.6026-11.778 9.005c-11.588 8.8604-30.94 18.539-36.75 18.381-1.6302-0.0444-0.6783-1.7106 2.1154-3.7026zm184.98-5.4286-8.0363-8.5657h7.1937c13.832 0 15.228-1.7648 15.228-19.255v-16.172l-80-1.5375 80-1.1312v-12.698c0-12.337 0.2108-12.698 7.4113-12.698 13.118 0 15.446 2.1465 15.446 14.24v11.157h20.831c19.933 0 21.188-0.34545 29.098-8.0123l8.2666-8.0124 10.274 9.2822 10.274 9.2822h-78.745v45.136l-8.6378 4.0989c-12.404 5.886-19.471 4.6227-28.605-5.1131zm346.06 6.3126c-0.5896-1.8974-2.2741-7.2158-3.7434-11.819-2.0078-6.2905-1.9057-8.6198 0.4113-9.3789 3.5668-1.1685 55.097-11.458 57.382-11.458 0.8407 0-7.6042 6.0931-18.766 13.54-35.559 23.724-34.097 22.932-35.283 19.116zm49.638-5.4278c16.548-12.621 26.661-27.34 28.588-41.607 4.2508-31.468 4.2079-31.336 10.151-31.336 7.4304 0 16.065 6.1857 12.076 8.6511-1.6084 0.99409-2.9244 5.5325-2.9244 10.085 0 4.5529-1.7352 14.121-3.856 21.262-4.6478 15.651-20.738 31.17-38.642 37.271-16.827 5.7335-17.682 5.0471-5.3917-4.327zm73.287 6.6908c-8.9209-3.4833-10.159-9.0683-10.159-45.833 0-38.057-0.025-37.981 11.428-34.907 4.7273 1.2688 5.0794 3.5109 5.0794 32.346v30.983l9.4164 0.78181c12.727 1.0567 18.546-2.5983 24.045-15.103l4.6334-10.536 1.5228 9.889c0.8376 5.4389 2.3172 12.746 3.2879 16.238 3.3562 12.073-3.0908 16.375-25.537 17.039-10.95 0.32424-21.623-0.0797-23.718-0.89798zm181.23-47.71 1.7211-49.701-49.616-0.97227 48.254-2.8373-0.9549-37.46c-1.0553-41.387-1.8611-39.624 15.863-34.703 7.2536 2.0141 9.0832 3.474 6.9841 5.5732-1.8029 1.8028-2.8442 14.746-2.8442 35.352v32.508h8.6258c6.704 0 10.392-2.0118 16.554-9.0293l7.9279-9.0293 6.9384 4.9457c3.8162 2.7201 9.1155 7.3547 11.776 10.299l4.8381 5.3535h-56.551l-0.6897 48.889-0.6898 48.889-19.858 1.6247zm159.94 40.134-8.0363-8.5657h8.1859c13.639 0 17.196-4.4527 16.293-20.395l-0.787-13.891-38.095-0.54227c-20.952-0.29826-39.238-0.82547-40.635-1.1716-1.3968-0.34614 15.746-1.245 38.095-1.9974l40.635-1.3681-0.894-12.423-0.8942-12.423 11.733 1.3225c10.538 1.1878 12.204 0.64236 16.354-5.3548 2.5412-3.6725 5.3521-8.7032 6.2461-11.179 2.7601-7.6445 8.8163-7.7368 20.551-0.31309l11.267 7.1278-41.505 10.386-1.5482 24.127h20.971c20.032 0 21.336-0.35396 29.132-7.9103l8.1616-7.9103 21.28 17.09-79.265 1.3988v22.727c0 22.599-0.043 22.749-7.4928 26.602-11.589 5.993-20.644 4.3686-29.75-5.3373zm180.83 4.4413c12.921-5.8694 29.833-24.873 33.74-37.913 1.6427-5.4828 2.9867-15.389 2.9867-22.013 0-11.498-0.2807-11.974-6.1936-10.49-3.4064 0.85499-6.9026 0.40745-7.7689-0.99451-1.028-1.6634 12-2.549 37.497-2.549 38.437 0 39.17-0.10362 45.062-6.376l5.9901-6.376 14.685 14.022-34.668 2.5397-0.7299 25.022c-0.4746 16.268 0.3005 26.264 2.2156 28.571 1.6714 2.014 7.5848 3.5494 13.67 3.5494 11.907 0 16.574-3.6658 22.728-17.853l3.8227-8.8133 0.1143 7.619c0.063 4.1905 1.6716 10.602 3.5739 14.248 2.4375 4.6713 2.7146 8.046 0.9386 11.429-4.8828 9.2988-10.067 11.149-31.238 11.149-17.156 0-21.921-0.91363-27.451-5.2637-6.6129-5.2015-6.6919-5.6518-6.6919-38.095 8e-4 -30.425-0.3487-32.832-4.7677-32.832-6.7495 0-9.7341 4.601-11.744 18.105-2.2423 15.066-13.955 35.566-25.238 44.172-8.4894 6.4754-28.373 13.974-36.748 13.858-2.2225-0.0307 0.5747-2.1524 6.2161-4.715zm-1244.2-2.4707c5.7786-2.7234 15.254-9.2405 21.056-14.482l10.549-9.5307-14.176-9.3469 10.884-0.0178c10.505-0.0152 11.058-0.4223 15.873-11.656 2.744-6.4015 4.9891-12.116 4.9891-12.698 0-0.58157-5.7871-1.0582-12.86-1.0582h-12.86l-5.5524 12.639c-4.9764 11.327-6.3932 12.645-13.657 12.698-10.727 0.0792-12.11-2.9826-5.9291-13.121 6.7376-11.051 6.5775-11.717-3.1096-12.919-8.0512-0.99916-8.0178-1.0343 1.3601-1.4308 8.9166-0.37697 9.9875-1.2777 14.763-12.418 2.8318-6.6063 5.5248-12.388 5.9845-12.847 1.2631-1.2631 19.162 6.5856 19.162 8.4025 0 0.86946-1.7143 3.2951-3.8095 5.3904-2.0953 2.0952-3.8095 5.4422-3.8095 7.4376 0 4.7995 16.162 4.8807 20.938 0.10515 3.0041-3.0041 4.7903-2.9901 12.129 0.0955 10.549 4.4354 11.961 5.7446 8.6425 8.0099-1.4234 0.97168-5.6552 7.0775-9.4039 13.568l-6.8159 11.802 6.1103 4.0036c7.5342 4.9366 10.473 13.315 6.3943 18.229-4.3082 5.1911-10.043 4.5863-16.812-1.7729l-5.8125-5.4606-18.478 9.1335c-10.163 5.0234-22.478 9.8226-27.367 10.665l-8.8889 1.5314 10.507-4.9517zm827.85-4.7173c-3.8177-8.0058-4.4447-16.199-4.1788-54.603 0.2387-34.698-0.4264-45.184-2.8722-45.184-2.1308 0-1.78-1.4049 1.0596-4.2445 3.9662-3.9662 4.9232-3.9384 14.597 0.42369 7.1231 3.212 9.5337 5.4867 7.7283 7.2921-1.5533 1.5532-2.624 16.997-2.624 37.844v35.221l6.9841-4.806c3.8413-2.6433 11.556-7.5508 17.143-10.906l10.159-6.0996-11.114 13.907c-6.113 7.649-15.679 19.907-21.258 27.241-5.5786 7.3333-10.365 13.333-10.637 13.333-0.272 0-2.5155-4.2386-4.9861-9.4191zm-232.34-47.579c-3.6207-14.379-3.6518-14.105 1.6032-14.159 6.1968-0.0637 31.294-31.095 27.896-34.492-0.7498-0.74984-7.2368 0.38088-14.416 2.5127l-13.052 3.8761-2.4364-6.4083c-3.412-8.9742-3.0384-13.625 1.2257-15.261 3.9089-1.5 17.469-32.19 20.443-46.267 1.5488-7.3314 2.5918-8.2654 7.7773-6.9639 16.84 4.2265 22.813 8.9097 16.412 12.866-1.3747 0.84957-9.3856 11.414-17.802 23.477-16.319 23.389-16.404 25.958-0.861 26.033 7.1962 0.0348 8.5001-1.1556 12.372-11.295 4.3276-11.332 4.33-11.333 11.478-7.6371 3.932 2.0333 7.8555 4.84 8.719 6.2371 0.8635 1.3971-7.6355 13.907-18.887 27.8-11.251 13.893-20.456 25.748-20.456 26.345 0 0.59667 8.2857 0.65938 18.413 0.13943l18.413-0.9455-26.313 12.713c-14.472 6.9922-26.622 12.713-27 12.713s-1.9658-5.0775-3.5284-11.283zm-200.06 5.5691c-0.6461-1.0476 20.267-1.9048 46.473-1.9048h47.648l15.807-15.321 19.99 17.538-64.372 0.7964c-35.405 0.43799-64.901-0.0607-65.547-1.1084zm349.56-32.484c-1.7592-4.2474-6.4764-12.247-10.483-17.778-6.8304-9.4293-6.9616-10.055-2.1072-10.055 13.953 0 32.95 13.894 32.95 24.098 0 13.117-15.311 15.926-20.36 3.7351zm-452.02 3.8625c0-3.7128 13.201-21.537 15.95-21.537 1.7535 0 7.715 3.0761 13.248 6.8358l10.06 6.8358-17.724 4.5348c-19.392 4.9613-21.534 5.2926-21.534 3.3304zm367.42-8.4988-3.525-8.8377 11.64-8.0217c6.8956-4.752 13.736-12.288 16.782-18.49 4.9112-9.9977 5.6746-10.473 16.994-10.586 7.0717-0.0709 12.263 1.1137 12.87 2.9366 0.5602 1.6803-6.2017 9.1805-15.026 16.667-8.8247 7.4865-16.045 14.644-16.045 15.907 0 1.2621 12.045 2.6191 26.767 3.0156l26.767 0.72084-73.7 15.526zm-666.31-6.0539c3.3745-4.5397 9.2555-13.683 13.069-20.317l6.9336-12.064-13.575-0.45754c-12.121-0.40854-11.534-0.61255 5.4729-1.9048l19.048-1.4472 0.7338-22.222c0.6536-19.793 1.2556-22.222 5.5066-22.222 11.202 0 11.942 1.6681 10.759 24.222l-1.1281 21.492h9.7033c6.9574 0 11.629-1.8449 16.508-6.5195l6.8049-6.5194 11.275 14.309-43.654 1.4676v35.358h-7.6191c-7.0143 0-7.619-0.70547-7.619-8.8889 0-4.8889-0.8796-8.8889-1.9547-8.8889-1.0752 0-8.7894 5.1308-17.143 11.402-18.047 13.548-21.424 14.372-13.121 3.2013zm431.36 3.0642c-6.2248-3.795-7.7885-6.0054-5.8775-8.308 1.9114-2.3031 10.549-64.984 10.549-76.551 0-2.0769 5.2826-1.6474 15.856 1.2891 9.004 2.5006 9.3221 2.9366 6.0108 8.2398-1.9229 3.0798-4.0924 10.457-4.821 16.393l-1.3248 10.794h87.879l15.966-18.185 9.8428 8.4573c5.4135 4.6515 9.9395 9.3145 10.058 10.362s-27.688 1.9048-61.791 1.9048h-62.006l-1.6277 19.683c-1.6378 19.806-4.6479 31.119-8.2751 31.102-1.0775-5e-3 -5.7757-2.3363-10.44-5.1802zm-236.36-1.9814c-1.9027-3.5551-0.7455-7.2441 4.9791-15.873 4.1018-6.1828 7.5008-13.527 7.5532-16.321 0.091-4.863 0.2985-4.8359 4.8624 0.63492 4.6105 5.5267 6.2263 5.7143 49.217 5.7143h44.45l6.8967-18.413c3.7931-10.127 8.7502-22.696 11.016-27.932l4.1191-9.519 13.333 6.2276c7.3334 3.4252 13.333 7.2711 13.333 8.5466 0 1.2754-4.7244 5.4454-10.498 9.2666-12.635 8.3615-32.676 26.52-32.676 29.606 0 4.059 28.47 2.521 33.24-1.7957 3.6656-3.3173 5.4591-3.4716 10.359-0.8912 11.363 5.9844 18.197 12.376 14.478 13.54-1.91 0.59827-9.105 2.8996-15.989 5.1141-16.713 5.3766-17.358 5.2265-15.421-3.5927l1.6734-7.619h-122.31v7.7084c0 16.155-16.302 27.396-22.617 15.597zm811.61 2.9384c-3.4423-3.4422-1.517-11.575 4.656-19.668 3.4921-4.5783 6.3492-10.788 6.3492-13.799 0-6.9157 4.2088-7.1395 6.3672-0.33864 1.5678 4.9399 3.3824 5.1095 47.543 4.4444l45.913-0.69148 9.985-26.667c5.4916-14.667 10.222-26.905 10.512-27.197 1.3412-1.3484 26.98 11.998 26.98 14.044 0 1.2754-4.2857 5.1834-9.5238 8.6842-12.797 8.5526-33.651 27.195-33.651 30.081 0 4.2066 28.408 2.6844 33.349-1.7869 4.2135-3.8132 5.3912-3.6133 16.272 2.7636 6.4515 3.7808 11.03 7.5742 10.175 8.4295-1.5688 1.569-29.014 10.589-32.431 10.658-1.0126 0.0203-1.1556-3.3912-0.3175-7.5816l1.5238-7.619h-122.54v8.3238c0 4.5781-1.779 10.864-3.9535 13.968-3.7508 5.355-13.556 7.6062-17.21 3.9513zm-939.8-9.4035c-1.9664-4.7063-6.0332-10.279-9.0374-12.383-11.206-7.8487 7.1403-7.9226 19.316-0.0777 7.1329 4.5959 9.0944 10.021 5.8291 16.122-4.1942 7.8368-12.049 6.0513-16.107-3.6616zm1237-6.517c26.613-1.343 28.88-1.878 35.705-8.4285l7.2887-6.9945 6.8343 7.1335c3.7587 3.9234 6.8342 7.9281 6.8342 8.8993 0 0.97117-19.143 1.554-42.54 1.295-41.199-0.45592-41.644-0.51593-14.123-1.9048zm-45.771-12.016c-3.0804-3.0802-1.759-10.329 2.528-13.869 2.3215-1.9171 6.2141-6.7541 8.6499-10.749 4.3571-7.1452 4.4757-7.1762 7.297-1.9048 2.4635 4.6034 5.1817 5.3586 19.286 5.3586 9.2526 0 16.419-1.1085 16.419-2.5397 0-1.3968-1.1429-2.5397-2.5397-2.5397s-2.5397-4.3171-2.5397-9.5936c0-5.2765-1.8661-12.258-4.1468-15.514-4.1417-5.9131-4.1361-5.9182 4.4445-4.1795 18.125 3.6727 28.14 18.264 18.888 27.516-2.1711 2.1711-3.9474 4.6005-3.9474 5.3986 0 0.7982 8.4493 1.4512 18.776 1.4512 14.347 0 19.121-0.89861 20.238-3.8095 0.8041-2.0952 2.6575-3.8095 4.1186-3.8095 3.3778 0 22.041 16.982 20.351 18.518-0.6935 0.63063-7.345 1.7052-14.781 2.3878-13.178 1.2099-13.482 1.0898-12.015-4.7531l1.5045-5.9943h-40.446c-38.542 0-40.386 0.22807-39.179 4.8446 2.4117 9.2224-16.242 20.444-22.906 13.78zm-1023.8-11.64c-0.5457-1.746-1.6548-7.1954-2.4646-12.11-0.8098-4.9143-3.8413-13.355-6.7367-18.757-4.5029-8.4014-4.6558-9.5885-1.0574-8.2077 2.3137 0.88788 5.2528 1.6143 6.5314 1.6143 4.5417 0 22.162 18 23.728 24.24 2.3793 9.4799-2.4287 16.395-11.399 16.395-4.1852 0-8.056-1.4286-8.6017-3.1746zm810.46 1.4815c-0.9313-0.9312-1.6932-5.309-1.6932-9.7283s-2.7184-13.405-6.0409-19.967c-6.0078-11.867-6.0111-11.923-0.6349-10.3 21.219 6.4086 36.469 28.657 26.485 38.641-3.2595 3.2594-15.31 4.1604-18.116 1.3545zm-768.04-5.0682c-1.901-0.76709-3.1784-6.0355-3.1841-13.133-0.01-7.3307-1.9292-15.001-5.042-20.106-5.6608-9.2843-3.5729-10.174 9.412-4.0128 9.6334 4.5714 18.472 16.622 18.487 25.206 0.018 9.4219-10.387 15.792-19.673 12.045zm810.16-1.4926c-1.3913-1.746-3.0786-9.1862-3.7501-16.534-0.7167-7.8441-3.1089-15.445-5.7943-18.413-4.2228-4.6663-4.2415-5.0536-0.2438-5.0536 12.644 0 29.474 16.044 29.474 28.098 0 12.048-13.207 20.034-19.685 11.902zm-334.59-6.9945 7.3094-7.6294 7.134 6.8347c3.9238 3.7591 7.134 7.1924 7.134 7.6294 0 0.43707-6.4996 0.79469-14.443 0.79469h-14.444zm-743.96 2.0933c-0.5885-1.844-1.5646-6.7813-2.1692-10.972-0.6045-4.1905-1.9545-9.619-2.9999-12.063-2.7651-6.4655 2.0748-5.5026 11.282 2.2446 6.2921 5.2945 7.7888 8.339 7.179 14.603-0.5829 5.9874-2.1644 8.1121-6.4961 8.7272-3.1491 0.44716-6.2071-0.6957-6.7956-2.5397zm823.15 1.2155c-0.7028-1.137-2.0823-6.3569-3.0659-11.6-0.9837-5.2429-2.8016-10.159-4.0402-10.924-4.0873-2.5262-2.3428-6.1713 2.9539-6.1713 13.869 0 24.696 11.924 22.3 24.561-0.9176 4.8394-15.639 8.1932-18.148 4.1342zm-770.22-17.047 5.1018-16.288 9.6261 4.9108c5.2944 2.701 9.6261 5.3218 9.6261 5.824 0 1.0299-27.239 21.841-28.587 21.841-0.4778 0 1.4272-7.3295 4.2332-16.288zm640.11 6.764c-0.8136-3.8413-3.0292-11.27-4.9234-16.508-3.7133-10.268-2.8961-10.961 8.0455-6.815 9.4877 3.5948 18.578 12.339 18.578 17.87 0 6.3305-6.9237 12.437-14.101 12.437-4.6239 0-6.4809-1.7068-7.5988-6.9841z" fill="#333"/>
   <rect x="17.548" y="39.05" width="800" height="680" fill="none" style="paint-order:stroke fill markers"/>
  </g>
  <g fill="#ed6d01" fill-rule="evenodd" stroke="#ed6d01" stroke-linejoin="round" stroke-width="1.1339">
   <ellipse transform="translate(-8,2)" cx="292.53" cy="959.29" rx="13.745" ry="14.051" clip-path="url(#clipPath1082)" style="paint-order:stroke fill markers"/>
   <ellipse transform="translate(-8,2)" cx="362.54" cy="893.5" rx="13.745" ry="14.051" clip-path="url(#clipPath1078)" style="paint-order:stroke fill markers"/>
   <ellipse transform="translate(-8,2)" cx="431.04" cy="958.46" rx="13.745" ry="14.051" clip-path="url(#clipPath1074)" style="paint-order:stroke fill markers"/>
  </g>
 </g>
</svg>
